<svg xmlns="http://www.w3.org/2000/svg" xmlns:svg="http://www.w3.org/2000/svg" id="svg8" width="296.508" height="199.237" version="1.1" viewBox="0 0 78.451 52.715"><defs id="defs2"><clipPath id="clipEmfPath1"><path id="path10" d="M -7.9951545,-5.2768019 H 283.98789 V 200.67838 H -7.9951545 Z"/></clipPath><clipPath id="clipEmfPath1-1"><path id="path184" d="M 0,-0.31980618 H 604.43368 V 214.6699 H 0 Z"/></clipPath><clipPath id="clipEmfPath2"><path id="path187" d="M 184.52816,52.208359 H 431.09873 V 209.23319 H 184.52816 Z"/></clipPath><clipPath id="clipEmfPath3"><path id="path190" d="m 239.85463,85.708056 h 55.96608 v 26.384014 h -55.96608 z"/></clipPath><clipPath id="clipEmfPath4"><path id="path193" d="m 255.84494,155.74561 h 79.95155 v 26.38401 h -79.95155 z"/></clipPath></defs>image/svg+xml<g id="layer1" transform="translate(-54.920213,-114.14504)"><path style="fill:none;stroke:#000;stroke-width:.354327px;stroke-linecap:round;stroke-linejoin:miter;stroke-miterlimit:8;stroke-dasharray:none;stroke-opacity:1" id="path253" d="M 67.617251,122.25962 V 166.6827 H 133.19418 V 122.25962 Z"/><path style="fill:#000;fill-opacity:1;fill-rule:nonzero;stroke:#000;stroke-width:.0211538px;stroke-linecap:butt;stroke-linejoin:bevel;stroke-miterlimit:4;stroke-dasharray:none;stroke-opacity:1" id="path263" d="M 118.74081,138.29952 H 56.691288 v -0.34903 h 62.049522 z m -0.35432,-1.23221 2.11538,1.0577 -2.11538,1.05769 z m -61.346164,2.11539 -2.115383,-1.05769 2.115383,-1.0577 z"/><path style="fill:#000;fill-opacity:1;fill-rule:nonzero;stroke:#000;stroke-width:.0211538px;stroke-linecap:butt;stroke-linejoin:bevel;stroke-miterlimit:4;stroke-dasharray:none;stroke-opacity:1" id="path265" d="m 84.365805,163.15529 v -47.24182 h 0.35169 v 47.24182 z m 1.23221,-0.35168 -1.05769,2.11539 -1.05769,-2.11539 z m -2.11538,-46.53846 1.05769,-2.11538 1.05769,2.11538 z"/><path style="fill:#000;fill-opacity:1;fill-rule:nonzero;stroke:#000;stroke-width:.0211538px;stroke-linecap:butt;stroke-linejoin:bevel;stroke-miterlimit:4;stroke-dasharray:none;stroke-opacity:1" id="path267" d="m 95.117245,131.95337 h -1.40937 v -0.35168 h 1.40937 z m -2.46706,0 h -1.40938 v -0.35168 h 1.40938 z m -2.46707,0 h -1.41202 v -0.35168 h 1.41202 z m -2.46971,0 h -1.40938 v -0.35168 h 1.40938 z m -2.46707,0 h -1.40937 v -0.35168 h 1.40937 z m -2.46706,0 h -1.41202 v -0.35168 h 1.41202 z m -2.46972,0 h -1.40937 v -0.35168 h 1.40937 z m -2.46707,0 h -1.40937 v -0.35168 h 1.40937 z m -2.46706,0 h -1.41202 v -0.35168 h 1.41202 z m -1.23486,0.88317 v 1.40938 h -0.35168 v -1.40938 z m 0,2.46707 v 1.40938 h -0.35168 v -1.40938 z m 0,2.46707 v 1.41202 h -0.35168 v -1.41202 z m 0,2.46971 v 1.40938 h -0.35168 v -1.40938 z m 0,2.46707 v 1.40937 h -0.35168 v -1.40937 z m 0.52885,1.58654 h 1.40937 v 0.35168 h -1.40937 z m 2.46707,0 h 1.41202 v 0.35168 h -1.41202 z m 2.46971,0 h 1.40937 v 0.35168 h -1.40937 z m 2.46706,0 h 1.40938 v 0.35168 h -1.40938 z m 2.46707,0 h 1.41202 v 0.35168 h -1.41202 z m 2.46971,0 h 1.40938 v 0.35168 h -1.40938 z m 2.46707,0 h 1.40938 v 0.35168 h -1.40938 z m 2.46707,0 h 1.41202 v 0.35168 h -1.41202 z m 2.46971,0 h 0.70336 l -0.17452,0.17716 v -0.70601 h 0.35169 v 0.88053 h -0.88053 z m 0.52884,-1.58654 v -1.40938 h 0.35169 v 1.40938 z m 0,-2.46707 v -1.41202 h 0.35169 v 1.41202 z m 0,-2.46971 v -1.40938 h 0.35169 v 1.40938 z m 0,-2.46707 v -1.40937 h 0.35169 v 1.40937 z m 0,-2.46707 v -1.05769 h 0.35169 v 1.05769 z"/><path style="fill:#000;fill-opacity:1;fill-rule:evenodd;stroke:none;stroke-width:.264583" id="path269" d="m 84.347295,137.01443 c -0.58437,0 -1.05769,0.47596 -1.05769,1.06563 0,0.58966 0.47332,1.06562 1.05769,1.06562 0.58438,0 1.0577,-0.47596 1.0577,-1.06562 0,-0.58967 -0.47332,-1.06563 -1.0577,-1.06563 z"/><path style="fill:none;stroke:#000;stroke-width:.351683px;stroke-linecap:round;stroke-linejoin:round;stroke-miterlimit:4;stroke-dasharray:none;stroke-opacity:1" id="path271" d="m 84.347295,137.01443 c -0.58437,0 -1.05769,0.47596 -1.05769,1.06563 0,0.58966 0.47332,1.06562 1.05769,1.06562 0.58438,0 1.0577,-0.47596 1.0577,-1.06562 0,-0.58967 -0.47332,-1.06563 -1.0577,-1.06563"/><path style="fill:#000;fill-opacity:1;fill-rule:nonzero;stroke:#000;stroke-width:.0211538px;stroke-linecap:butt;stroke-linejoin:bevel;stroke-miterlimit:4;stroke-dasharray:none;stroke-opacity:1" id="path273" d="m 84.677825,138.0113 9.44784,11.33847 -0.27236,0.22476 -9.44783,-11.33847 z m 9.9,10.50289 0.53942,2.30312 -2.16562,-0.94927 z"/><g id="g287" clip-path="url(#clipEmfPath3)" transform="matrix(0.26458333,0,0,0.26458333,18.973981,109.88991)"><text style="font-style:normal;font-variant:normal;font-weight:400;font-size:13.375px;line-height:125%;font-family:Arial;text-align:start;letter-spacing:0;word-spacing:0;text-anchor:start;fill:#000;fill-opacity:1;stroke:none" id="text285" x="0" y="0" transform="translate(249.44882,98.100545)"><tspan id="tspan283" x="0" y="0"><tspan style="font-style:normal;font-variant:normal;font-weight:400;font-size:13.375px;font-family:Arial;fill:#000" id="tspan275" dx="0" dy="0">(</tspan><tspan style="font-style:normal;font-variant:normal;font-weight:400;font-size:13.375px;font-family:Arial;fill:#000" id="tspan277" dx="0" dy="0">0,</tspan><tspan style="font-style:normal;font-variant:normal;font-weight:400;font-size:13.375px;font-family:Arial;fill:#000" id="tspan279" dx="0" dy="0">0)</tspan></tspan></text></g><path style="fill:#000;fill-opacity:1;fill-rule:nonzero;stroke:#000;stroke-width:.0211538px;stroke-linecap:butt;stroke-linejoin:bevel;stroke-miterlimit:4;stroke-dasharray:none;stroke-opacity:1" id="path289" d="m 105.69418,144.64568 h -1.40673 v -0.34904 h 1.40673 z m -2.46443,0 h -1.41201 v -0.34904 h 1.41201 z m -2.46971,0 h -1.412025 v -0.34904 h 1.412025 z m -2.469715,0 h -1.40673 v -0.34904 h 1.40673 z m -2.46442,0 h -1.41202 v -0.34904 h 1.41202 z m -2.46971,0 h -1.41202 v -0.34904 h 1.41202 z m -2.46971,0 h -1.40673 v -0.34904 h 1.40673 z m -2.46443,0 h -1.41202 v -0.34904 h 1.41202 z m -2.46971,0 h -1.41202 l 0.17981,-0.17452 v 0 h -0.35433 v -0.17452 h 1.58654 z m -1.23221,0.88317 v 1.41202 h -0.35433 v -1.41202 z m 0,2.46971 v 1.40674 h -0.35433 v -1.40674 z m 0,2.46443 v 1.41202 h -0.35433 v -1.41202 z m 0,2.46971 v 1.41202 h -0.35433 v -1.41202 z m 0,2.46971 v 1.40673 h -0.35433 v -1.40673 z m 0.52885,1.58654 h 1.40673 v 0.34904 h -1.40673 z m 2.46442,0 h 1.41202 v 0.34904 h -1.41202 z m 2.46971,0 h 1.41202 v 0.34904 h -1.41202 z m 2.46971,0 h 1.40673 v 0.34904 h -1.40673 z m 2.46442,0 h 1.41202 v 0.34904 h -1.41202 z m 2.46972,0 h 1.41202 v 0.34904 h -1.41202 z m 2.469715,0 h 1.40673 v 0.34904 h -1.40673 z m 2.46442,0 h 1.41202 v 0.34904 h -1.41202 z m 2.46971,0 h 0.70337 l -0.17452,0.17452 v -0.70337 h 0.35432 v 0.87789 h -0.88317 z m 0.52885,-1.58654 v -1.41202 h 0.35432 v 1.41202 z m 0,-2.46971 v -1.41202 h 0.35432 v 1.41202 z m 0,-2.46971 v -1.40674 h 0.35432 v 1.40674 z m 0,-2.46443 v -1.41202 h 0.35432 v 1.41202 z m 0,-2.46971 v -1.05769 h 0.35432 v 1.05769 z"/><g id="g307" clip-path="url(#clipEmfPath4)" transform="matrix(0.26458333,0,0,0.26458333,18.973981,109.88991)"><text style="font-style:normal;font-variant:normal;font-weight:400;font-size:13.375px;line-height:125%;font-family:Arial;text-align:start;letter-spacing:0;word-spacing:0;text-anchor:start;fill:#000;fill-opacity:1;stroke:none" id="text305" x="0" y="0" transform="translate(265.43913,168.1381)"><tspan id="tspan303" x="0" y="0"><tspan style="font-style:normal;font-variant:normal;font-weight:400;font-size:13.375px;font-family:Arial;fill:#000" id="tspan291" dx="0" dy="0">(</tspan><tspan style="font-style:normal;font-variant:normal;font-weight:400;font-size:13.375px;font-family:Arial;fill:#000" id="tspan293" dx="0" dy="0">0.1,</tspan><tspan style="font-style:normal;font-variant:normal;font-weight:400;font-size:13.375px;font-family:Arial;fill:#000" id="tspan295" dx="0" dy="0">-</tspan><tspan style="font-style:normal;font-variant:normal;font-weight:400;font-size:13.375px;font-family:Arial;fill:#000" id="tspan297" dx="0" dy="0">0.2</tspan><tspan style="font-style:normal;font-variant:normal;font-weight:400;font-size:13.375px;font-family:Arial;fill:#000" id="tspan299" dx="0" dy="0">)</tspan></tspan></text></g></g></svg>