<svg xmlns="http://www.w3.org/2000/svg" xmlns:svg="http://www.w3.org/2000/svg" id="svg145" width="648.221" height="248.469" version="1.0"><metadata id="metadata149"/><path style="fill:#fff;fill-opacity:1;fill-rule:evenodd;stroke:none" id="path5" d="M 0,0 V 248.46919 H 648.22086 V 0 Z"/><path style="fill:#d9d9d9;fill-opacity:1;fill-rule:evenodd;stroke:none" id="path7" d="m 545.88901,129.12966 c 0,-32.800514 -26.65488,-59.455385 -59.45538,-59.455385 -32.80051,0 -59.38392,26.654871 -59.38392,59.455385 0,32.8005 26.58341,59.38392 59.38392,59.38392 32.8005,0 59.45538,-26.58342 59.45538,-59.38392 z"/><path style="fill:none;stroke:#000;stroke-width:1.07191193px;stroke-linecap:butt;stroke-linejoin:miter;stroke-miterlimit:2;stroke-dasharray:none;stroke-opacity:1" id="path9" d="m 545.88901,129.12966 c 0,-32.800514 -26.65488,-59.455385 -59.45538,-59.455385 -32.80051,0 -59.38392,26.654871 -59.38392,59.455385 0,32.8005 26.58341,59.38392 59.38392,59.38392 32.8005,0 59.45538,-26.58342 59.45538,-59.38392"/><path style="fill:#d9d9d9;fill-opacity:1;fill-rule:evenodd;stroke:none" id="path11" d="m 490.79273,129.12966 c 0,-2.42967 -1.92944,-4.35911 -4.3591,-4.35911 -2.35821,0 -4.28765,1.92944 -4.28765,4.35911 0,2.35821 1.92944,4.28765 4.28765,4.28765 2.42966,0 4.3591,-1.92944 4.3591,-4.28765 z"/><path style="fill:none;stroke:#000;stroke-width:1.07191193px;stroke-linecap:butt;stroke-linejoin:miter;stroke-miterlimit:2;stroke-dasharray:none;stroke-opacity:1" id="path13" d="m 490.79273,129.12966 c 0,-2.42967 -1.92944,-4.35911 -4.3591,-4.35911 -2.35821,0 -4.28765,1.92944 -4.28765,4.35911 0,2.35821 1.92944,4.28765 4.28765,4.28765 2.42966,0 4.3591,-1.92944 4.3591,-4.28765"/><path style="fill:#fff;fill-opacity:1;fill-rule:evenodd;stroke:none" id="path15" d="m 452.98997,107.47704 v 43.23378 h 64.81494 v -43.23378 z"/><path style="fill:none;stroke:#000;stroke-width:1.07191193px;stroke-linecap:butt;stroke-linejoin:miter;stroke-miterlimit:2;stroke-dasharray:none;stroke-opacity:1" id="path17" d="m 452.98997,150.71082 h 64.81494 v -43.23378 h -64.81494 z"/><path style="fill:none;stroke:#000;stroke-width:1.07191193px;stroke-linecap:butt;stroke-linejoin:miter;stroke-miterlimit:2;stroke-dasharray:none;stroke-opacity:1" id="path19" d="m 517.80491,139.92024 h 10.79058 v -21.58116 h -10.79058 z"/><path style="fill:#000;fill-opacity:1;fill-rule:nonzero;stroke:#000;stroke-width:1.14337265px;stroke-linecap:butt;stroke-linejoin:bevel;stroke-miterlimit:10;stroke-dasharray:none;stroke-opacity:1" id="path21" d="m 394.60651,128.55797 h 9.14698 v 1.14338 h -9.14698 z m 13.72047,0 h 9.14698 v 1.14338 h -9.14698 z m 13.72047,0 h 9.14698 v 1.14338 h -9.14698 z m 13.72047,0 h 9.14698 v 1.14338 h -9.14698 z m 13.72048,0 h 9.14698 v 1.14338 h -9.14698 z m 13.72047,0 h 9.14698 v 1.14338 h -9.14698 z m 13.72047,0 h 9.14698 v 1.14338 h -9.14698 z m 13.72047,0 h 9.14698 v 1.14338 h -9.14698 z m 13.72048,0 h 9.14698 v 1.14338 h -9.14698 z m 13.72047,0 h 9.14698 v 1.14338 h -9.14698 z m 13.72047,0 h 9.14698 v 1.14338 h -9.14698 z m 13.72047,0 h 9.14698 v 1.14338 h -9.14698 z m 13.72048,0 h 9.14698 v 1.14338 h -9.14698 z m 13.72047,0 h 5.2881 v 1.14338 h -5.2881 z"/><text style="font-style:normal;font-variant:normal;font-weight:400;font-size:18.3125px;line-height:125%;font-family:Arial;text-align:start;letter-spacing:0;word-spacing:0;text-anchor:start;fill:#000;fill-opacity:1;stroke:none" id="text27" x="582.977" y="134.346" xml:space="preserve"><tspan id="tspan25" x="582.977" y="134.346"><tspan style="font-style:normal;font-variant:normal;font-weight:400;font-size:18.3125px;font-family:Arial;fill:#000" id="tspan23" dx="0" dy="0">0</tspan></tspan></text><path style="fill:#fff;fill-opacity:1;fill-rule:evenodd;stroke:none" id="path29" d="m 597.62662,119.41099 c 0,-1.21483 -0.92899,-2.14382 -2.14382,-2.14382 -1.21484,0 -2.14383,0.92899 -2.14383,2.14382 0,1.14337 0.92899,2.14382 2.14383,2.14382 1.21483,0 2.14382,-1.00045 2.14382,-2.14382 z"/><path style="fill:none;stroke:#000;stroke-width:1.07191193px;stroke-linecap:butt;stroke-linejoin:miter;stroke-miterlimit:2;stroke-dasharray:none;stroke-opacity:1" id="path31" d="m 597.62662,119.41099 c 0,-1.21483 -0.92899,-2.14382 -2.14382,-2.14382 -1.21484,0 -2.14383,0.92899 -2.14383,2.14382 0,1.14337 0.92899,2.14382 2.14383,2.14382 1.21483,0 2.14382,-1.00045 2.14382,-2.14382"/><text style="font-style:normal;font-variant:normal;font-weight:400;font-size:18.3125px;line-height:125%;font-family:Arial;text-align:start;letter-spacing:0;word-spacing:0;text-anchor:start;fill:#000;fill-opacity:1;stroke:none" id="text39" x="467.497" y="233.82" xml:space="preserve"><tspan id="tspan37" x="467.497" y="233.82"><tspan style="font-style:normal;font-variant:normal;font-weight:400;font-size:18.3125px;font-family:Arial;fill:#000" id="tspan33" dx="0" dy="0">+</tspan><tspan style="font-style:normal;font-variant:normal;font-weight:400;font-size:18.3125px;font-family:Arial;fill:#000" id="tspan35" dx="0" dy="0">90</tspan></tspan></text><path style="fill:#fff;fill-opacity:1;fill-rule:evenodd;stroke:none" id="path41" d="m 503.72714,218.81296 c 0,-1.21484 -0.92899,-2.21529 -2.14383,-2.21529 -1.21483,0 -2.14382,1.00045 -2.14382,2.21529 0,1.14337 0.92899,2.14382 2.14382,2.14382 1.21484,0 2.14383,-1.00045 2.14383,-2.14382 z"/><path style="fill:none;stroke:#000;stroke-width:1.07191193px;stroke-linecap:butt;stroke-linejoin:miter;stroke-miterlimit:2;stroke-dasharray:none;stroke-opacity:1" id="path43" d="m 503.72714,218.81296 c 0,-1.21484 -0.92899,-2.21529 -2.14383,-2.21529 -1.21483,0 -2.14382,1.00045 -2.14382,2.21529 0,1.14337 0.92899,2.14382 2.14382,2.14382 1.21484,0 2.14383,-1.00045 2.14383,-2.14382"/><text style="font-style:normal;font-variant:normal;font-weight:400;font-size:18.3125px;line-height:125%;font-family:Arial;text-align:start;letter-spacing:0;word-spacing:0;text-anchor:start;fill:#000;fill-opacity:1;stroke:none" id="text53" x="333.722" y="134.346" xml:space="preserve"><tspan id="tspan51" x="333.722" y="134.346"><tspan style="font-style:normal;font-variant:normal;font-weight:400;font-size:18.3125px;font-family:Arial;fill:#000" id="tspan45" dx="0" dy="0">+/</tspan><tspan style="font-style:normal;font-variant:normal;font-weight:400;font-size:18.3125px;font-family:Arial;fill:#000" id="tspan47" dx="0" dy="0">-</tspan><tspan style="font-style:normal;font-variant:normal;font-weight:400;font-size:18.3125px;font-family:Arial;fill:#000" id="tspan49" dx="0" dy="0">180</tspan></tspan></text><path style="fill:#fff;fill-opacity:1;fill-rule:evenodd;stroke:none" id="path55" d="m 391.39077,119.41099 c 0,-1.21483 -1.00045,-2.14382 -2.14382,-2.14382 -1.21484,0 -2.21529,0.92899 -2.21529,2.14382 0,1.14337 1.00045,2.14382 2.21529,2.14382 1.14337,0 2.14382,-1.00045 2.14382,-2.14382 z"/><path style="fill:none;stroke:#000;stroke-width:1.07191193px;stroke-linecap:butt;stroke-linejoin:miter;stroke-miterlimit:2;stroke-dasharray:none;stroke-opacity:1" id="path57" d="m 391.39077,119.41099 c 0,-1.21483 -1.00045,-2.14382 -2.14382,-2.14382 -1.21484,0 -2.21529,0.92899 -2.21529,2.14382 0,1.14337 1.00045,2.14382 2.21529,2.14382 1.14337,0 2.14382,-1.00045 2.14382,-2.14382"/><text style="font-style:normal;font-variant:normal;font-weight:400;font-size:18.3125px;line-height:125%;font-family:Arial;text-align:start;letter-spacing:0;word-spacing:0;text-anchor:start;fill:#000;fill-opacity:1;stroke:none" id="text65" x="472.07" y="39.446" xml:space="preserve"><tspan id="tspan63" x="472.07" y="39.446"><tspan style="font-style:normal;font-variant:normal;font-weight:400;font-size:18.3125px;font-family:Arial;fill:#000" id="tspan59" dx="0" dy="0">-</tspan><tspan style="font-style:normal;font-variant:normal;font-weight:400;font-size:18.3125px;font-family:Arial;fill:#000" id="tspan61" dx="0" dy="0">90</tspan></tspan></text><path style="fill:#fff;fill-opacity:1;fill-rule:evenodd;stroke:none" id="path67" d="m 503.72714,24.29667 c 0,-1.143372 -0.92899,-2.143823 -2.14383,-2.143823 -1.21483,0 -2.14382,1.000451 -2.14382,2.143823 0,1.214834 0.92899,2.215285 2.14382,2.215285 1.21484,0 2.14383,-1.000451 2.14383,-2.215285 z"/><path style="fill:none;stroke:#000;stroke-width:1.07191193px;stroke-linecap:butt;stroke-linejoin:miter;stroke-miterlimit:2;stroke-dasharray:none;stroke-opacity:1" id="path69" d="m 503.72714,24.29667 c 0,-1.143372 -0.92899,-2.143823 -2.14383,-2.143823 -1.21483,0 -2.14382,1.000451 -2.14382,2.143823 0,1.214834 0.92899,2.215285 2.14382,2.215285 1.21484,0 2.14383,-1.000451 2.14383,-2.215285"/><path style="fill:#fff;fill-opacity:1;fill-rule:evenodd;stroke:none" id="path71" d="m 128.84381,108.62041 v 43.16232 h 64.81494 v -43.16232 z"/><path style="fill:none;stroke:#000;stroke-width:1.07191193px;stroke-linecap:butt;stroke-linejoin:miter;stroke-miterlimit:2;stroke-dasharray:none;stroke-opacity:1" id="path73" d="m 128.84381,108.62041 h 64.81494 v 43.16232 h -64.81494 z"/><path style="fill:#bfbfbf;fill-opacity:1;fill-rule:evenodd;stroke:none" id="path75" d="m 193.65875,119.41099 v 21.58116 h 10.79058 v -21.58116 z"/><path style="fill:none;stroke:#000;stroke-width:1.07191193px;stroke-linecap:butt;stroke-linejoin:miter;stroke-miterlimit:2;stroke-dasharray:none;stroke-opacity:1" id="path77" d="m 193.65875,119.41099 h 10.79058 v 21.58116 h -10.79058 z"/><path style="fill:#d9d9d9;fill-opacity:1;fill-rule:evenodd;stroke:none" id="path79" d="m 102.90354,173.43535 v 21.58116 h 118.83931 v -21.58116 z"/><path style="fill:none;stroke:#000;stroke-width:1.07191193px;stroke-linecap:butt;stroke-linejoin:miter;stroke-miterlimit:2;stroke-dasharray:none;stroke-opacity:1" id="path81" d="m 102.90354,173.43535 h 118.83931 v 21.58116 H 102.90354 Z"/><path style="fill:#fff;fill-opacity:1;fill-rule:evenodd;stroke:none" id="path83" d="m 151.56835,119.41099 v 54.02436 h 21.58116 v -54.02436 z"/><path style="fill:none;stroke:#000;stroke-width:1.07191193px;stroke-linecap:butt;stroke-linejoin:miter;stroke-miterlimit:2;stroke-dasharray:none;stroke-opacity:1" id="path85" d="m 151.56835,119.41099 h 21.58116 v 54.02436 h -21.58116 z"/><path style="fill:#fff;fill-opacity:1;fill-rule:evenodd;stroke:none" id="path87" d="m 168.86186,130.20157 c 0,3.57304 -2.92989,6.50293 -6.50293,6.50293 -3.57304,0 -6.50294,-2.92989 -6.50294,-6.50293 0,-3.57304 2.9299,-6.50293 6.50294,-6.50293 3.57304,0 6.50293,2.92989 6.50293,6.50293 z"/><path style="fill:none;stroke:#000;stroke-width:1.07191193px;stroke-linecap:butt;stroke-linejoin:miter;stroke-miterlimit:2;stroke-dasharray:none;stroke-opacity:1" id="path89" d="m 168.86186,130.20157 c 0,3.57304 -2.92989,6.50293 -6.50293,6.50293 -3.57304,0 -6.50294,-2.92989 -6.50294,-6.50293 0,-3.57304 2.9299,-6.50293 6.50294,-6.50293 3.57304,0 6.50293,2.92989 6.50293,6.50293"/><path style="fill:#000;fill-opacity:1;fill-rule:nonzero;stroke:#000;stroke-width:1.14337265px;stroke-linecap:butt;stroke-linejoin:bevel;stroke-miterlimit:10;stroke-dasharray:none;stroke-opacity:1" id="path91" d="m 68.387979,129.62988 h 9.146982 v 1.14338 h -9.146982 z m 13.720473,0 h 9.146981 v 1.14338 h -9.146981 z m 13.720472,0 h 9.146986 v 1.14338 h -9.146986 z m 13.720476,0 h 9.14698 v 1.14338 h -9.14698 z m 13.72047,0 h 9.14698 v 1.14338 h -9.14698 z m 13.72047,0 h 9.14699 v 1.14338 h -9.14699 z m 13.72048,0 h 9.14698 v 1.14338 h -9.14698 z m 13.72047,0 h 9.14698 v 1.14338 h -9.14698 z m 13.72047,0 h 9.14698 v 1.14338 h -9.14698 z m 13.72047,0 h 9.14699 v 1.14338 h -9.14699 z m 13.72048,0 h 9.14698 v 1.14338 h -9.14698 z m 13.72047,0 h 9.14698 v 1.14338 h -9.14698 z m 13.72047,0 h 9.14698 v 1.14338 h -9.14698 z m 13.72047,0 h 9.14698 v 1.14338 h -9.14698 z m 13.72048,0 h 0.21438 v 1.14338 h -0.21438 z"/><path style="fill:#000;fill-opacity:1;fill-rule:nonzero;stroke:#000;stroke-width:1.14337265px;stroke-linecap:butt;stroke-linejoin:bevel;stroke-miterlimit:10;stroke-dasharray:none;stroke-opacity:1" id="path93" d="m 161.78724,130.20157 v -9.14698 h 1.14337 v 9.14698 z m 0,-13.72047 v -9.14698 h 1.14337 v 9.14698 z m 0,-13.72047 v -9.146989 h 1.14337 v 9.146989 z m 0,-13.720481 v -9.146981 h 1.14337 v 9.146981 z m 0,-13.720473 v -9.14698 h 1.14337 v 9.14698 z m 0,-13.720472 v -9.146982 h 1.14337 v 9.146982 z m 0,-13.720473 v -4.073264 h 1.14337 v 4.073264 z"/><text style="font-style:normal;font-variant:normal;font-weight:400;font-size:18.3125px;line-height:125%;font-family:Arial;text-align:start;letter-spacing:0;word-spacing:0;text-anchor:start;fill:#000;fill-opacity:1;stroke:none" id="text99" x="270.836" y="135.49" xml:space="preserve"><tspan id="tspan97" x="270.836" y="135.49"><tspan style="font-style:normal;font-variant:normal;font-weight:400;font-size:18.3125px;font-family:Arial;fill:#000" id="tspan95" dx="0" dy="0">0</tspan></tspan></text><path style="fill:#fff;fill-opacity:1;fill-rule:evenodd;stroke:none" id="path101" d="m 286.55779,120.4829 c 0,-1.21483 -0.92899,-2.14382 -2.14383,-2.14382 -1.21483,0 -2.14382,0.92899 -2.14382,2.14382 0,1.21484 0.92899,2.14383 2.14382,2.14383 1.21484,0 2.14383,-0.92899 2.14383,-2.14383 z"/><path style="fill:none;stroke:#000;stroke-width:1.07191193px;stroke-linecap:butt;stroke-linejoin:miter;stroke-miterlimit:2;stroke-dasharray:none;stroke-opacity:1" id="path103" d="m 286.55779,120.4829 c 0,-1.21483 -0.92899,-2.14382 -2.14383,-2.14382 -1.21483,0 -2.14382,0.92899 -2.14382,2.14382 0,1.21484 0.92899,2.14383 2.14382,2.14383 1.21484,0 2.14383,-0.92899 2.14383,-2.14383"/><path style="fill:#fff;fill-opacity:1;fill-rule:evenodd;stroke:none" id="path105" d="m 68.387979,120.4829 c 0,-1.21483 -1.000451,-2.14382 -2.215284,-2.14382 -1.143373,0 -2.143824,0.92899 -2.143824,2.14382 0,1.21484 1.000451,2.14383 2.143824,2.14383 1.214833,0 2.215284,-0.92899 2.215284,-2.14383 z"/><path style="fill:none;stroke:#000;stroke-width:1.07191193px;stroke-linecap:butt;stroke-linejoin:miter;stroke-miterlimit:2;stroke-dasharray:none;stroke-opacity:1" id="path107" d="m 68.387979,120.4829 c 0,-1.21483 -1.000451,-2.14382 -2.215284,-2.14382 -1.143373,0 -2.143824,0.92899 -2.143824,2.14382 0,1.21484 1.000451,2.14383 2.143824,2.14383 1.214833,0 2.215284,-0.92899 2.215284,-2.14383"/><text style="font-style:normal;font-variant:normal;font-weight:400;font-size:18.3125px;line-height:125%;font-family:Arial;text-align:start;letter-spacing:0;word-spacing:0;text-anchor:start;fill:#000;fill-opacity:1;stroke:none" id="text115" x="21.581" y="135.49" xml:space="preserve"><tspan id="tspan113" x="21.581" y="135.49"><tspan style="font-style:normal;font-variant:normal;font-weight:400;font-size:18.3125px;font-family:Arial;fill:#000" id="tspan109" dx="0" dy="0">+</tspan><tspan style="font-style:normal;font-variant:normal;font-weight:400;font-size:18.3125px;font-family:Arial;fill:#000" id="tspan111" dx="0" dy="0">180</tspan></tspan></text><text style="font-style:normal;font-variant:normal;font-weight:400;font-size:18.3125px;line-height:125%;font-family:Arial;text-align:start;letter-spacing:0;word-spacing:0;text-anchor:start;fill:#000;fill-opacity:1;stroke:none" id="text121" x="139.349" y="13.149" xml:space="preserve"><tspan id="tspan119" x="139.349" y="13.149"><tspan style="font-style:normal;font-variant:normal;font-weight:400;font-size:18.3125px;font-family:Arial;fill:#000" id="tspan117" dx="0" dy="0">zenith</tspan></tspan></text><path style="fill:#fff;fill-opacity:1;fill-rule:evenodd;stroke:none" id="path123" d="m 180.72435,25.440043 c 0,-1.214833 -1.00045,-2.215284 -2.14382,-2.215284 -1.21484,0 -2.21529,1.000451 -2.21529,2.215284 0,1.143373 1.00045,2.143824 2.21529,2.143824 1.14337,0 2.14382,-1.000451 2.14382,-2.143824 z"/><path style="fill:none;stroke:#000;stroke-width:1.07191193px;stroke-linecap:butt;stroke-linejoin:miter;stroke-miterlimit:2;stroke-dasharray:none;stroke-opacity:1" id="path125" d="m 180.72435,25.440043 c 0,-1.214833 -1.00045,-2.215284 -2.14382,-2.215284 -1.21484,0 -2.21529,1.000451 -2.21529,2.215284 0,1.143373 1.00045,2.143824 2.21529,2.143824 1.14337,0 2.14382,-1.000451 2.14382,-2.143824"/><text style="font-style:normal;font-variant:normal;font-weight:400;font-size:18.3125px;line-height:125%;font-family:Arial;text-align:start;letter-spacing:0;word-spacing:0;text-anchor:start;fill:#000;fill-opacity:1;stroke:none" id="text133" x="143.922" y="40.59" xml:space="preserve"><tspan id="tspan131" x="143.922" y="40.59"><tspan style="font-style:normal;font-variant:normal;font-weight:400;font-size:18.3125px;font-family:Arial;fill:#000" id="tspan127" dx="0" dy="0">+</tspan><tspan style="font-style:normal;font-variant:normal;font-weight:400;font-size:18.3125px;font-family:Arial;fill:#000" id="tspan129" dx="0" dy="0">90</tspan></tspan></text><path style="fill:#fff;fill-opacity:1;fill-rule:evenodd;stroke:none" id="path135" d="m 478.00125,150.71082 v 8.64676 h 17.29351 v -8.64676 z"/><path style="fill:none;stroke:#000;stroke-width:1.07191193px;stroke-linecap:butt;stroke-linejoin:miter;stroke-miterlimit:2;stroke-dasharray:none;stroke-opacity:1" id="path137" d="m 478.00125,159.35758 h 17.29351 v -8.64676 h -17.29351 z"/><path style="fill:#fff;fill-opacity:1;fill-rule:evenodd;stroke:none" id="path139" d="m 478.00125,98.901736 v 8.575304 h 17.29351 v -8.575304 z"/><path style="fill:none;stroke:#000;stroke-width:1.07191193px;stroke-linecap:butt;stroke-linejoin:miter;stroke-miterlimit:2;stroke-dasharray:none;stroke-opacity:1" id="path141" d="m 478.00125,107.47704 h 17.29351 v -8.575304 h -17.29351 z"/><path style="fill:#000;fill-opacity:1;fill-rule:nonzero;stroke:#000;stroke-width:1.14337265px;stroke-linecap:butt;stroke-linejoin:bevel;stroke-miterlimit:10;stroke-dasharray:none;stroke-opacity:1" id="path143" d="m 487.36262,42.662094 v 9.146982 h -1.14338 v -9.146982 z m 0,13.720473 v 9.146982 h -1.14338 v -9.146982 z m 0,13.720472 v 9.146982 h -1.14338 v -9.146982 z m 0,13.720473 v 9.146981 h -1.14338 v -9.146981 z m 0,13.720474 v 9.146984 h -1.14338 v -9.146984 z m 0,13.720474 v 9.14698 h -1.14338 v -9.14698 z m 0,13.72047 v 9.14698 h -1.14338 v -9.14698 z m 0,13.72048 v 9.14698 h -1.14338 v -9.14698 z m 0,13.72047 v 9.14698 h -1.14338 v -9.14698 z m 0,13.72047 v 9.14698 h -1.14338 v -9.14698 z m 0,13.72047 v 9.14698 h -1.14338 v -9.14698 z m 0,13.72048 v 9.14698 h -1.14338 v -9.14698 z m 0,13.72047 v 8.21799 h -1.14338 v -8.21799 z"/></svg>