<svg xmlns="http://www.w3.org/2000/svg" xmlns:svg="http://www.w3.org/2000/svg" id="svg145" width="648.221" height="237.679" version="1.0"><metadata id="metadata149"/><path style="fill:#fff;fill-opacity:1;fill-rule:evenodd;stroke:none" id="path5" d="M 0,0 V 237.6786 H 648.22086 V 0 Z"/><path style="fill:#fff;fill-opacity:1;fill-rule:evenodd;stroke:none" id="path7" d="m 142.42136,152.71172 -3.85888,-64.743483 43.16232,-2.572589 3.85888,64.743482 z"/><path style="fill:none;stroke:#000;stroke-width:1.07191193px;stroke-linecap:butt;stroke-linejoin:miter;stroke-miterlimit:2;stroke-dasharray:none;stroke-opacity:1" id="path9" d="m 142.42136,152.71172 -3.85888,-64.743483 43.16232,-2.572589 3.85888,64.743482 z"/><path style="fill:#bfbfbf;fill-opacity:1;fill-rule:evenodd;stroke:none" id="path11" d="m 149.35306,87.32509 -0.64315,-10.79058 21.58116,-1.286294 0.64315,10.79058 z"/><path style="fill:none;stroke:#000;stroke-width:1.07191193px;stroke-linecap:butt;stroke-linejoin:miter;stroke-miterlimit:2;stroke-dasharray:none;stroke-opacity:1" id="path13" d="m 149.35306,87.32509 -0.64315,-10.79058 21.58116,-1.286294 0.64315,10.79058 z"/><path style="fill:#d9d9d9;fill-opacity:1;fill-rule:evenodd;stroke:none" id="path15" d="m 102.6177,162.07308 v 21.58116 H 221.457 v -21.58116 z"/><path style="fill:none;stroke:#000;stroke-width:1.07191193px;stroke-linecap:butt;stroke-linejoin:miter;stroke-miterlimit:2;stroke-dasharray:none;stroke-opacity:1" id="path17" d="M 102.6177,162.07308 H 221.457 v 21.58116 H 102.6177 Z"/><path style="fill:#fff;fill-opacity:1;fill-rule:evenodd;stroke:none" id="path19" d="m 151.2825,108.04872 v 54.02436 h 21.58116 v -54.02436 z"/><path style="fill:none;stroke:#000;stroke-width:1.07191193px;stroke-linecap:butt;stroke-linejoin:miter;stroke-miterlimit:2;stroke-dasharray:none;stroke-opacity:1" id="path21" d="m 151.2825,108.04872 h 21.58116 v 54.02436 H 151.2825 Z"/><path style="fill:#fff;fill-opacity:1;fill-rule:evenodd;stroke:none" id="path23" d="m 168.50455,118.8393 c 0,3.57304 -2.85843,6.50293 -6.43147,6.50293 -3.57304,0 -6.50293,-2.92989 -6.50293,-6.50293 0,-3.57304 2.92989,-6.50293 6.50293,-6.50293 3.57304,0 6.43147,2.92989 6.43147,6.50293 z"/><path style="fill:none;stroke:#000;stroke-width:1.07191193px;stroke-linecap:butt;stroke-linejoin:miter;stroke-miterlimit:2;stroke-dasharray:none;stroke-opacity:1" id="path25" d="m 168.50455,118.8393 c 0,3.57304 -2.85843,6.50293 -6.43147,6.50293 -3.57304,0 -6.50293,-2.92989 -6.50293,-6.50293 0,-3.57304 2.92989,-6.50293 6.50293,-6.50293 3.57304,0 6.43147,2.92989 6.43147,6.50293"/><path style="fill:#000;fill-opacity:1;fill-rule:nonzero;stroke:#000;stroke-width:1.14337265px;stroke-linecap:butt;stroke-linejoin:bevel;stroke-miterlimit:10;stroke-dasharray:none;stroke-opacity:1" id="path27" d="m 68.102136,118.8393 h 9.146982 v 1.14337 h -9.146982 z m 13.720473,0 h 9.146981 v 1.14337 h -9.146981 z m 13.720472,0 h 9.146979 v 1.14337 h -9.146979 z m 13.720479,0 h 9.14698 v 1.14337 h -9.14698 z m 13.72047,0 h 9.14698 v 1.14337 h -9.14698 z m 13.72047,0 h 9.14698 v 1.14337 h -9.14698 z m 13.72047,0 h 9.14698 v 1.14337 h -9.14698 z m 13.72048,0 h 9.14698 v 1.14337 h -9.14698 z m 13.72047,0 h 9.14698 v 1.14337 h -9.14698 z m 13.72047,0 h 9.14698 v 1.14337 h -9.14698 z m 13.72047,0 h 9.14698 v 1.14337 h -9.14698 z m 13.72048,0 h 9.14698 v 1.14337 h -9.14698 z m 13.72047,0 h 9.14698 v 1.14337 h -9.14698 z m 13.72047,0 h 9.14698 v 1.14337 h -9.14698 z m 13.72047,0 h 0.21438 v 1.14337 h -0.21438 z"/><path style="fill:#000;fill-opacity:1;fill-rule:nonzero;stroke:#000;stroke-width:1.14337265px;stroke-linecap:butt;stroke-linejoin:bevel;stroke-miterlimit:10;stroke-dasharray:none;stroke-opacity:1" id="path29" d="m 161.5014,118.8393 v -9.14698 h 1.14337 v 9.14698 z m 0,-13.72047 v -9.146984 h 1.14337 v 9.146984 z m 0,-13.720475 v -9.146982 h 1.14337 v 9.146982 z m 0,-13.720472 v -9.146982 h 1.14337 v 9.146982 z m 0,-13.720473 v -9.146981 h 1.14337 v 9.146981 z m 0,-13.720472 v -9.146982 h 1.14337 v 9.146982 z m 0,-13.720473 V 32.4432 h 1.14337 v 4.073265 z"/><text style="font-style:normal;font-variant:normal;font-weight:400;font-size:18.3125px;line-height:125%;font-family:Arial;text-align:start;letter-spacing:0;word-spacing:0;text-anchor:start;fill:#000;fill-opacity:1;stroke:none" id="text35" x="47.879" y="124.485" xml:space="preserve"><tspan id="tspan33" x="47.879" y="124.485"><tspan style="font-style:normal;font-variant:normal;font-weight:400;font-size:18.3125px;font-family:Arial;fill:#000" id="tspan31" dx="0" dy="0">0</tspan></tspan></text><path style="fill:#fff;fill-opacity:1;fill-rule:evenodd;stroke:none" id="path37" d="m 63.743028,109.12063 c 0,-1.21483 -0.928991,-2.14382 -2.143824,-2.14382 -1.214834,0 -2.143824,0.92899 -2.143824,2.14382 0,1.21484 0.92899,2.14383 2.143824,2.14383 1.214833,0 2.143824,-0.92899 2.143824,-2.14383 z"/><path style="fill:none;stroke:#000;stroke-width:1.07191193px;stroke-linecap:butt;stroke-linejoin:miter;stroke-miterlimit:2;stroke-dasharray:none;stroke-opacity:1" id="path39" d="m 63.743028,109.12063 c 0,-1.21483 -0.928991,-2.14382 -2.143824,-2.14382 -1.214834,0 -2.143824,0.92899 -2.143824,2.14382 0,1.21484 0.92899,2.14383 2.143824,2.14383 1.214833,0 2.143824,-0.92899 2.143824,-2.14383"/><path style="fill:#fff;fill-opacity:1;fill-rule:evenodd;stroke:none" id="path41" d="m 313.85581,109.12063 c 0,-1.21483 -1.00045,-2.14382 -2.14383,-2.14382 -1.21483,0 -2.21528,0.92899 -2.21528,2.14382 0,1.21484 1.00045,2.14383 2.21528,2.14383 1.14338,0 2.14383,-0.92899 2.14383,-2.14383 z"/><path style="fill:none;stroke:#000;stroke-width:1.07191193px;stroke-linecap:butt;stroke-linejoin:miter;stroke-miterlimit:2;stroke-dasharray:none;stroke-opacity:1" id="path43" d="m 313.85581,109.12063 c 0,-1.21483 -1.00045,-2.14382 -2.14383,-2.14382 -1.21483,0 -2.21528,0.92899 -2.21528,2.14382 0,1.21484 1.00045,2.14383 2.21528,2.14383 1.14338,0 2.14383,-0.92899 2.14383,-2.14383"/><text style="font-style:normal;font-variant:normal;font-weight:400;font-size:18.3125px;line-height:125%;font-family:Arial;text-align:start;letter-spacing:0;word-spacing:0;text-anchor:start;fill:#000;fill-opacity:1;stroke:none" id="text51" x="266.263" y="124.485" xml:space="preserve"><tspan id="tspan49" x="266.263" y="124.485"><tspan style="font-style:normal;font-variant:normal;font-weight:400;font-size:18.3125px;font-family:Arial;fill:#000" id="tspan45" dx="0" dy="0">+</tspan><tspan style="font-style:normal;font-variant:normal;font-weight:400;font-size:18.3125px;font-family:Arial;fill:#000" id="tspan47" dx="0" dy="0">180</tspan></tspan></text><path style="fill:#fff;fill-opacity:1;fill-rule:evenodd;stroke:none" id="path53" d="m 182.58233,4.3591084 c 1.21483,0 2.14382,0.9289903 2.14382,2.1438238 0,1.1433727 -0.92899,2.1438239 -2.14382,2.1438239 -1.21483,0 -2.14382,-1.0004512 -2.14382,-2.1438239 0,-1.2148335 0.92899,-2.1438238 2.14382,-2.1438238 z"/><path style="fill:none;stroke:#000;stroke-width:1.07191193px;stroke-linecap:butt;stroke-linejoin:miter;stroke-miterlimit:2;stroke-dasharray:none;stroke-opacity:1" id="path55" d="m 182.58233,4.3591084 c 1.21483,0 2.14382,0.9289903 2.14382,2.1438238 0,1.1433727 -0.92899,2.1438239 -2.14382,2.1438239 -1.21483,0 -2.14382,-1.0004512 -2.14382,-2.1438239 0,-1.2148335 0.92899,-2.1438238 2.14382,-2.1438238"/><text style="font-style:normal;font-variant:normal;font-weight:400;font-size:18.3125px;line-height:125%;font-family:Arial;text-align:start;letter-spacing:0;word-spacing:0;text-anchor:start;fill:#000;fill-opacity:1;stroke:none" id="text63" x="147.352" y="21.581" xml:space="preserve"><tspan id="tspan61" x="147.352" y="21.581"><tspan style="font-style:normal;font-variant:normal;font-weight:400;font-size:18.3125px;font-family:Arial;fill:#000" id="tspan57" dx="0" dy="0">+</tspan><tspan style="font-style:normal;font-variant:normal;font-weight:400;font-size:18.3125px;font-family:Arial;fill:#000" id="tspan59" dx="0" dy="0">90</tspan></tspan></text><path style="fill:#d9d9d9;fill-opacity:1;fill-rule:evenodd;stroke:none" id="path65" d="m 545.60316,119.41099 c 0,-32.871969 -26.65487,-59.455384 -59.45538,-59.455384 -32.8005,0 -59.38392,26.583415 -59.38392,59.455384 0,32.8005 26.58342,59.38392 59.38392,59.38392 32.80051,0 59.45538,-26.58342 59.45538,-59.38392 z"/><path style="fill:none;stroke:#000;stroke-width:1.07191193px;stroke-linecap:butt;stroke-linejoin:miter;stroke-miterlimit:2;stroke-dasharray:none;stroke-opacity:1" id="path67" d="m 545.60316,119.41099 c 0,-32.871969 -26.65487,-59.455384 -59.45538,-59.455384 -32.8005,0 -59.38392,26.583415 -59.38392,59.455384 0,32.8005 26.58342,59.38392 59.38392,59.38392 32.80051,0 59.45538,-26.58342 59.45538,-59.38392"/><path style="fill:#d9d9d9;fill-opacity:1;fill-rule:evenodd;stroke:none" id="path69" d="m 490.50689,119.41099 c 0,-2.42967 -1.92944,-4.35911 -4.35911,-4.35911 -2.3582,0 -4.28764,1.92944 -4.28764,4.35911 0,2.3582 1.92944,4.28765 4.28764,4.28765 2.42967,0 4.35911,-1.92945 4.35911,-4.28765 z"/><path style="fill:none;stroke:#000;stroke-width:1.07191193px;stroke-linecap:butt;stroke-linejoin:miter;stroke-miterlimit:2;stroke-dasharray:none;stroke-opacity:1" id="path71" d="m 490.50689,119.41099 c 0,-2.42967 -1.92944,-4.35911 -4.35911,-4.35911 -2.3582,0 -4.28764,1.92944 -4.28764,4.35911 0,2.3582 1.92944,4.28765 4.28764,4.28765 2.42967,0 4.35911,-1.92945 4.35911,-4.28765"/><path style="fill:#fff;fill-opacity:1;fill-rule:evenodd;stroke:none" id="path73" d="m 461.06504,97.758366 v 43.233784 h 43.23378 V 97.758366 Z"/><path style="fill:none;stroke:#000;stroke-width:1.07191193px;stroke-linecap:butt;stroke-linejoin:miter;stroke-miterlimit:2;stroke-dasharray:none;stroke-opacity:1" id="path75" d="m 461.06504,140.99215 h 43.23378 V 97.758366 h -43.23378 z"/><text style="font-style:normal;font-variant:normal;font-weight:400;font-size:18.3125px;line-height:125%;font-family:Arial;text-align:start;letter-spacing:0;word-spacing:0;text-anchor:start;fill:#000;fill-opacity:1;stroke:none" id="text81" x="378.313" y="124.485" xml:space="preserve"><tspan id="tspan79" x="378.313" y="124.485"><tspan style="font-style:normal;font-variant:normal;font-weight:400;font-size:18.3125px;font-family:Arial;fill:#000" id="tspan77" dx="0" dy="0">0</tspan></tspan></text><path style="fill:#fff;fill-opacity:1;fill-rule:evenodd;stroke:none" id="path83" d="m 393.24875,109.12063 c 0,-1.21483 -0.92899,-2.14382 -2.14382,-2.14382 -1.21484,0 -2.14383,0.92899 -2.14383,2.14382 0,1.21484 0.92899,2.14383 2.14383,2.14383 1.21483,0 2.14382,-0.92899 2.14382,-2.14383 z"/><path style="fill:none;stroke:#000;stroke-width:1.07191193px;stroke-linecap:butt;stroke-linejoin:miter;stroke-miterlimit:2;stroke-dasharray:none;stroke-opacity:1" id="path85" d="m 393.24875,109.12063 c 0,-1.21483 -0.92899,-2.14382 -2.14382,-2.14382 -1.21484,0 -2.14383,0.92899 -2.14383,2.14382 0,1.21484 0.92899,2.14383 2.14383,2.14383 1.21483,0 2.14382,-0.92899 2.14382,-2.14383"/><text style="font-style:normal;font-variant:normal;font-weight:400;font-size:18.3125px;line-height:125%;font-family:Arial;text-align:start;letter-spacing:0;word-spacing:0;text-anchor:start;fill:#000;fill-opacity:1;stroke:none" id="text93" x="472.07" y="227.388" xml:space="preserve"><tspan id="tspan91" x="472.07" y="227.388"><tspan style="font-style:normal;font-variant:normal;font-weight:400;font-size:18.3125px;font-family:Arial;fill:#000" id="tspan87" dx="0" dy="0">-</tspan><tspan style="font-style:normal;font-variant:normal;font-weight:400;font-size:18.3125px;font-family:Arial;fill:#000" id="tspan89" dx="0" dy="0">90</tspan></tspan></text><path style="fill:#fff;fill-opacity:1;fill-rule:evenodd;stroke:none" id="path95" d="m 503.4413,211.73833 c 0,-1.14337 -0.929,-2.14382 -2.14383,-2.14382 -1.21483,0 -2.14382,1.00045 -2.14382,2.14382 0,1.21484 0.92899,2.14383 2.14382,2.14383 1.21483,0 2.14383,-0.92899 2.14383,-2.14383 z"/><path style="fill:none;stroke:#000;stroke-width:1.07191193px;stroke-linecap:butt;stroke-linejoin:miter;stroke-miterlimit:2;stroke-dasharray:none;stroke-opacity:1" id="path97" d="m 503.4413,211.73833 c 0,-1.14337 -0.929,-2.14382 -2.14383,-2.14382 -1.21483,0 -2.14382,1.00045 -2.14382,2.14382 0,1.21484 0.92899,2.14383 2.14382,2.14383 1.21483,0 2.14383,-0.92899 2.14383,-2.14383"/><text style="font-style:normal;font-variant:normal;font-weight:400;font-size:18.3125px;line-height:125%;font-family:Arial;text-align:start;letter-spacing:0;word-spacing:0;text-anchor:start;fill:#000;fill-opacity:1;stroke:none" id="text105" x="465.21" y="27.298" xml:space="preserve"><tspan id="tspan103" x="465.21" y="27.298"><tspan style="font-style:normal;font-variant:normal;font-weight:400;font-size:18.3125px;font-family:Arial;fill:#000" id="tspan99" dx="0" dy="0">+</tspan><tspan style="font-style:normal;font-variant:normal;font-weight:400;font-size:18.3125px;font-family:Arial;fill:#000" id="tspan101" dx="0" dy="0">90</tspan></tspan></text><path style="fill:#fff;fill-opacity:1;fill-rule:evenodd;stroke:none" id="path107" d="m 501.29747,11.862491 c 0,-1.143372 -1.00045,-2.143823 -2.14382,-2.143823 -1.21484,0 -2.21529,1.000451 -2.21529,2.143823 0,1.214834 1.00045,2.215285 2.21529,2.215285 1.14337,0 2.14382,-1.000451 2.14382,-2.215285 z"/><path style="fill:none;stroke:#000;stroke-width:1.07191193px;stroke-linecap:butt;stroke-linejoin:miter;stroke-miterlimit:2;stroke-dasharray:none;stroke-opacity:1" id="path109" d="m 501.29747,11.862491 c 0,-1.143372 -1.00045,-2.143823 -2.14382,-2.143823 -1.21484,0 -2.21529,1.000451 -2.21529,2.143823 0,1.214834 1.00045,2.215285 2.21529,2.215285 1.14337,0 2.14382,-1.000451 2.14382,-2.215285"/><text style="font-style:normal;font-variant:normal;font-weight:400;font-size:18.3125px;line-height:125%;font-family:Arial;text-align:start;letter-spacing:0;word-spacing:0;text-anchor:start;fill:#000;fill-opacity:1;stroke:none" id="text119" x="580.69" y="124.485" xml:space="preserve"><tspan id="tspan117" x="580.69" y="124.485"><tspan style="font-style:normal;font-variant:normal;font-weight:400;font-size:18.3125px;font-family:Arial;fill:#000" id="tspan111" dx="0" dy="0">+/</tspan><tspan style="font-style:normal;font-variant:normal;font-weight:400;font-size:18.3125px;font-family:Arial;fill:#000" id="tspan113" dx="0" dy="0">-</tspan><tspan style="font-style:normal;font-variant:normal;font-weight:400;font-size:18.3125px;font-family:Arial;fill:#000" id="tspan115" dx="0" dy="0">180</tspan></tspan></text><path style="fill:#fff;fill-opacity:1;fill-rule:evenodd;stroke:none" id="path121" d="m 638.5022,109.12063 c 0,-1.21483 -1.00046,-2.14382 -2.14383,-2.14382 -1.21483,0 -2.21528,0.92899 -2.21528,2.14382 0,1.21484 1.00045,2.14383 2.21528,2.14383 1.14337,0 2.14383,-0.92899 2.14383,-2.14383 z"/><path style="fill:none;stroke:#000;stroke-width:1.07191193px;stroke-linecap:butt;stroke-linejoin:miter;stroke-miterlimit:2;stroke-dasharray:none;stroke-opacity:1" id="path123" d="m 638.5022,109.12063 c 0,-1.21483 -1.00046,-2.14382 -2.14383,-2.14382 -1.21483,0 -2.21528,0.92899 -2.21528,2.14382 0,1.21484 1.00045,2.14383 2.21528,2.14383 1.14337,0 2.14383,-0.92899 2.14383,-2.14383"/><path style="fill:#d9d9d9;fill-opacity:1;fill-rule:evenodd;stroke:none" id="path125" d="m 494.79454,118.8393 c 0,-6.57439 -5.2881,-11.86249 -11.86249,-11.86249 -6.5744,0 -11.86249,5.2881 -11.86249,11.86249 0,6.57439 5.28809,11.86249 11.86249,11.86249 6.57439,0 11.86249,-5.2881 11.86249,-11.86249 z"/><path style="fill:none;stroke:#000;stroke-width:1.07191193px;stroke-linecap:butt;stroke-linejoin:miter;stroke-miterlimit:2;stroke-dasharray:none;stroke-opacity:1" id="path127" d="m 494.79454,118.8393 c 0,-6.57439 -5.2881,-11.86249 -11.86249,-11.86249 -6.5744,0 -11.86249,5.2881 -11.86249,11.86249 0,6.57439 5.28809,11.86249 11.86249,11.86249 6.57439,0 11.86249,-5.2881 11.86249,-11.86249"/><path style="fill:#000;fill-opacity:1;fill-rule:nonzero;stroke:#000;stroke-width:1.14337265px;stroke-linecap:butt;stroke-linejoin:bevel;stroke-miterlimit:10;stroke-dasharray:none;stroke-opacity:1" id="path129" d="m 394.32066,118.8393 h 9.14698 v 1.14337 h -9.14698 z m 13.72048,0 h 9.14698 v 1.14337 h -9.14698 z m 13.72047,0 h 9.14698 v 1.14337 h -9.14698 z m 13.72047,0 h 9.14698 v 1.14337 h -9.14698 z m 13.72047,0 h 9.14698 v 1.14337 h -9.14698 z m 13.72047,0 h 9.14699 v 1.14337 h -9.14699 z m 13.72048,0 h 9.14698 v 1.14337 h -9.14698 z m 13.72047,0 h 9.14698 v 1.14337 h -9.14698 z m 13.72047,0 h 9.14698 v 1.14337 h -9.14698 z m 13.72047,0 h 9.14699 v 1.14337 h -9.14699 z m 13.72048,0 h 9.14698 v 1.14337 h -9.14698 z m 13.72047,0 h 9.14698 v 1.14337 h -9.14698 z m 13.72047,0 h 9.14698 v 1.14337 h -9.14698 z m 13.72047,0 h 5.2881 v 1.14337 h -5.2881 z"/><path style="fill:#fff;fill-opacity:1;fill-rule:evenodd;stroke:none" id="path131" d="m 477.85833,89.11161 v 8.646756 h 17.29351 V 89.11161 Z"/><path style="fill:none;stroke:#000;stroke-width:1.07191193px;stroke-linecap:butt;stroke-linejoin:miter;stroke-miterlimit:2;stroke-dasharray:none;stroke-opacity:1" id="path133" d="m 477.85833,97.758366 h 17.29351 V 89.11161 h -17.29351 z"/><path style="fill:#fff;fill-opacity:1;fill-rule:evenodd;stroke:none" id="path135" d="m 477.85833,140.99215 v 8.64675 h 17.29351 v -8.64675 z"/><path style="fill:none;stroke:#000;stroke-width:1.07191193px;stroke-linecap:butt;stroke-linejoin:miter;stroke-miterlimit:2;stroke-dasharray:none;stroke-opacity:1" id="path137" d="m 477.85833,149.6389 h 17.29351 v -8.64675 h -17.29351 z"/><path style="fill:#000;fill-opacity:1;fill-rule:nonzero;stroke:#000;stroke-width:1.14337265px;stroke-linecap:butt;stroke-linejoin:bevel;stroke-miterlimit:10;stroke-dasharray:none;stroke-opacity:1" id="path139" d="m 487.07677,32.943426 v 9.146981 h -1.14337 v -9.146981 z m 0,13.720472 v 9.146982 h -1.14337 v -9.146982 z m 0,13.720472 v 9.146982 H 485.9334 V 60.38437 Z m 0,13.720473 v 9.146982 h -1.14337 v -9.146982 z m 0,13.720472 v 9.146982 h -1.14337 v -9.146982 z m 0,13.720475 v 9.14698 h -1.14337 v -9.14698 z m 0,13.72047 v 9.14698 h -1.14337 v -9.14698 z m 0,13.72047 v 9.14699 h -1.14337 v -9.14699 z m 0,13.72048 v 9.14698 h -1.14337 v -9.14698 z m 0,13.72047 v 9.14698 h -1.14337 v -9.14698 z m 0,13.72047 v 9.14698 h -1.14337 v -9.14698 z m 0,13.72047 v 9.14699 h -1.14337 v -9.14699 z m 0,13.72048 v 8.21799 h -1.14337 v -8.21799 z"/><path style="fill:none;stroke:#000;stroke-width:1.85798061px;stroke-linecap:round;stroke-linejoin:round;stroke-miterlimit:10;stroke-dasharray:none;stroke-opacity:1" id="path141" d="M 183.65424,64.81494 C 176.57962,55.382115 164.14545,51.594693 152.99756,55.596497"/><path style="fill:#000;fill-opacity:1;fill-rule:evenodd;stroke:none" id="path143" d="M 150.78228,50.165477 140.42046,64.81494 157.49959,59.312459 Z"/></svg>