<svg xmlns="http://www.w3.org/2000/svg" xmlns:svg="http://www.w3.org/2000/svg" id="svg8" width="524.987" height="280.903" version="1.1" viewBox="0 0 138.903 74.322"><defs id="defs2"><marker style="overflow:visible" id="Arrow2Mend" orient="auto" refX="0" refY="0"><path style="fill:#000;fill-opacity:1;fill-rule:evenodd;stroke:#000;stroke-width:.625;stroke-linejoin:round;stroke-opacity:1" id="path1143" d="M 8.7185878,4.0337352 -2.2072895,0.01601326 8.7185884,-4.0017078 c -1.7454984,2.3720609 -1.7354408,5.6174519 -6e-7,8.035443 z" transform="scale(-0.6)"/></marker><marker style="overflow:visible" id="marker1480" orient="auto" refX="0" refY="0"><path style="fill:#000;fill-opacity:1;fill-rule:evenodd;stroke:#000;stroke-width:.625;stroke-linejoin:round;stroke-opacity:1" id="path1478" d="M 8.7185878,4.0337352 -2.2072895,0.01601326 8.7185884,-4.0017078 c -1.7454984,2.3720609 -1.7354408,5.6174519 -6e-7,8.035443 z" transform="matrix(-1.1,0,0,-1.1,-1.1,0)"/></marker><marker style="overflow:visible" id="Arrow1Lend" orient="auto" refX="0" refY="0"><path style="fill:#000;fill-opacity:1;fill-rule:evenodd;stroke:#000;stroke-width:1.00000003pt;stroke-opacity:1" id="path1119" d="M 0,0 5,-5 -12.5,0 5,5 Z" transform="matrix(-0.8,0,0,-0.8,-10,0)"/></marker><marker style="overflow:visible" id="EmptyTriangleOutL" orient="auto" refX="0" refY="0"><path style="fill:#fff;fill-rule:evenodd;stroke:#000;stroke-width:1.00000003pt;stroke-opacity:1" id="path1276" d="M 5.77,0 -2.88,5 V -5 Z" transform="matrix(0.8,0,0,0.8,-4.8,0)"/></marker><marker style="overflow:visible" id="Arrow2Lend" orient="auto" refX="0" refY="0"><path style="fill:#000;fill-opacity:1;fill-rule:evenodd;stroke:#000;stroke-width:.625;stroke-linejoin:round;stroke-opacity:1" id="path1137" d="M 8.7185878,4.0337352 -2.2072895,0.01601326 8.7185884,-4.0017078 c -1.7454984,2.3720609 -1.7354408,5.6174519 -6e-7,8.035443 z" transform="matrix(-1.1,0,0,-1.1,-1.1,0)"/></marker><clipPath id="clipEmfPath1" clipPathUnits="userSpaceOnUse"><path id="path815" d="m 122.72562,78.592368 h 97.78074 v 32.300422 h -97.78074 z"/></clipPath><clipPath id="clipEmfPath2" clipPathUnits="userSpaceOnUse"><path id="path818" d="m 122.72562,154.30648 h 97.78074 v 32.22047 h -97.78074 z"/></clipPath><clipPath id="clipEmfPath3" clipPathUnits="userSpaceOnUse"><path id="path821" d="m 122.72562,230.02059 h 97.78074 v 32.22048 h -97.78074 z"/></clipPath><clipPath id="clipEmfPath4" clipPathUnits="userSpaceOnUse"><path id="path824" d="m 122.72562,305.65475 h 97.78074 v 32.30043 h -97.78074 z"/></clipPath><clipPath id="clipEmfPath5" clipPathUnits="userSpaceOnUse"><path id="path827" d="m 311.89098,305.73471 h 97.86069 v 32.22047 h -97.86069 z"/></clipPath><clipPath id="clipEmfPath6" clipPathUnits="userSpaceOnUse"><path id="path830" d="M 296.94004,78.592368 H 442.21199 V 110.89279 H 296.94004 Z"/></clipPath><clipPath id="clipEmfPath7" clipPathUnits="userSpaceOnUse"><path id="path833" d="m 274.5536,199.23925 h 125.36403 v 25.66444 H 274.5536 Z"/></clipPath><clipPath id="clipEmfPath8" clipPathUnits="userSpaceOnUse"><path id="path836" d="m 104.33677,198.75954 h 66.59963 v 25.7444 h -66.59963 z"/></clipPath><clipPath id="clipEmfPath9" clipPathUnits="userSpaceOnUse"><path id="path839" d="m 100.65899,274.87341 h 70.27741 v 25.7444 h -70.27741 z"/></clipPath><clipPath id="clipEmfPath10" clipPathUnits="userSpaceOnUse"><path id="path842" d="m 15.670503,125.44397 h 62.202301 v 25.7444 H 15.670503 Z"/></clipPath><clipPath id="clipEmfPath11" clipPathUnits="userSpaceOnUse"><path id="path845" d="m 116.3295,37.417323 h 54.04724 V 63.081769 H 116.3295 Z"/></clipPath><clipPath id="clipEmfPath12" clipPathUnits="userSpaceOnUse"><path id="path848" d="m 100.65899,124.4046 h 69.55785 v 25.7444 h -69.55785 z"/></clipPath><clipPath id="clipEmfPath13" clipPathUnits="userSpaceOnUse"><path id="path851" d="m 245.05148,47.970927 h 59.96366 v 41.4149 h -59.96366 z"/></clipPath><clipPath id="clipEmfPath14" clipPathUnits="userSpaceOnUse"><path id="path854" d="m 263.20048,256.80436 h 86.58753 v 68.03877 h -86.58753 z"/></clipPath><clipPath id="clipEmfPath1-7" clipPathUnits="userSpaceOnUse"><path id="path938" d="M -5.7616648,-9.6027746 H 630.5822 V 472.13642 H -5.7616648 Z"/></clipPath><clipPath id="clipEmfPath2-8" clipPathUnits="userSpaceOnUse"><path id="path941" d="M 15.684532,32.649434 H 606.25517 v 45.13304 H 15.684532 Z"/></clipPath><clipPath id="clipEmfPath3-2" clipPathUnits="userSpaceOnUse"><path id="path944-9" d="M 15.684532,80.663307 H 299.28647 V 161.9668 H 15.684532 Z"/></clipPath><clipPath id="clipEmfPath4-8" clipPathUnits="userSpaceOnUse"><path id="path947" d="m 320.73267,217.3428 h 135.39912 v 33.28962 H 320.73267 Z"/></clipPath><clipPath id="clipEmfPath5-9" clipPathUnits="userSpaceOnUse"><path id="path950-3" d="M 15.684532,355.94284 H 606.89535 v 44.81295 H 15.684532 Z"/></clipPath><clipPath id="clipEmfPath6-6" clipPathUnits="userSpaceOnUse"><path id="path953" d="M 320.73267,80.663307 H 456.13179 V 209.98067 H 320.73267 Z"/></clipPath><clipPath id="clipEmfPath7-6" clipPathUnits="userSpaceOnUse"><path id="path956" d="M 471.49623,80.663307 H 606.89535 V 209.98067 H 471.49623 Z"/></clipPath><clipPath id="clipEmfPath8-9" clipPathUnits="userSpaceOnUse"><path id="path959" d="M 372.90775,3.2009249 H 546.71797 V 31.369064 H 372.90775 Z"/></clipPath><clipPath id="clipEmfPath9-9" clipPathUnits="userSpaceOnUse"><path id="path962" d="m 106.27071,183.0929 h 96.34783 v 22.08638 h -96.34783 z"/></clipPath><clipPath id="clipEmfPath10-3" clipPathUnits="userSpaceOnUse"><path id="path965" d="m 177.97142,219.26335 h 68.49979 v 22.08638 h -68.49979 z"/></clipPath><clipPath id="clipEmfPath11-6" clipPathUnits="userSpaceOnUse"><path id="path968-6" d="m 479.81864,217.98298 h 66.89933 v 33.92981 h -66.89933 z"/></clipPath><clipPath id="clipEmfPath12-3" clipPathUnits="userSpaceOnUse"><path id="path971" d="m 242.31001,282.64167 h 55.376 v 37.13072 h -55.376 z"/></clipPath><clipPath id="clipEmfPath13-3" clipPathUnits="userSpaceOnUse"><path id="path974" d="m 321.69295,283.60194 h 132.51829 v 37.13073 H 321.69295 Z"/></clipPath><clipPath id="clipEmfPath14-0" clipPathUnits="userSpaceOnUse"><path id="path977" d="m 222.46428,255.11371 h 69.46007 v 16.32472 h -69.46007 z"/></clipPath><clipPath id="clipEmfPath15" clipPathUnits="userSpaceOnUse"><path id="path980" d="M 66.259145,4.4812948 H 239.74927 V 52.175075 H 66.259145 Z"/></clipPath><clipPath id="clipEmfPath16" clipPathUnits="userSpaceOnUse"><path id="path983" d="m 328.41489,255.11371 h 69.46007 v 16.32472 h -69.46007 z"/></clipPath><clipPath id="clipEmfPath17" clipPathUnits="userSpaceOnUse"><path id="path986" d="m 474.37706,219.26335 h 69.46007 v 22.08638 h -69.46007 z"/></clipPath><clipPath id="clipEmfPath18" clipPathUnits="userSpaceOnUse"><path id="path989" d="m 321.37286,219.26335 h 69.46007 v 16.00463 h -69.46007 z"/></clipPath><clipPath id="clipEmfPath19" clipPathUnits="userSpaceOnUse"><path id="path992" d="m 321.37286,319.77239 h 285.52249 v 32.96953 H 321.37286 Z"/></clipPath><clipPath id="clipEmfPath20" clipPathUnits="userSpaceOnUse"><path id="path995" d="m 318.49202,255.11371 h 69.46007 v 16.32472 h -69.46007 z"/></clipPath><clipPath id="clipEmfPath21" clipPathUnits="userSpaceOnUse"><path id="path998" d="m 116.83376,319.77239 h 180.85225 v 32.96953 H 116.83376 Z"/></clipPath><clipPath id="clipEmfPath22" clipPathUnits="userSpaceOnUse"><path id="path1001" d="m 15.684532,319.77239 h 85.784788 v 32.96953 H 15.684532 Z"/></clipPath><clipPath id="clipEmfPath1-8" clipPathUnits="userSpaceOnUse"><path id="path1615" d="M 0,0 H 396.24243 V 337.80667 H 0 Z"/></clipPath><clipPath id="clipEmfPath2-5" clipPathUnits="userSpaceOnUse"><path id="path1618" d="M -7.2113248,-582.72437 H 107.36861 v 19.18435 H -7.2113248 Z"/></clipPath><clipPath id="clipEmfPath3-8" clipPathUnits="userSpaceOnUse"><path id="path1621" d="m 174.35381,-582.72437 h 106.24685 v 19.18435 H 174.35381 Z"/></clipPath><clipPath id="clipEmfPath4-7" clipPathUnits="userSpaceOnUse"><path id="path1624" d="m 104.16358,-537.48129 h 78.36306 v 15.98695 h -78.36306 z"/></clipPath><clipPath id="clipEmfPath5-2" clipPathUnits="userSpaceOnUse"><path id="path1627" d="m 106.24685,-413.90216 h 79.16432 v 15.98695 h -79.16432 z"/></clipPath><clipPath id="clipEmfPath6-1" clipPathUnits="userSpaceOnUse"><path id="path1630" d="M 60.036731,28.817631 H 174.50677 V 48.029385 H 60.036731 Z"/></clipPath><clipPath id="clipEmfPath7-8" clipPathUnits="userSpaceOnUse"><path id="path1633" d="M 241.42771,28.817631 H 347.57265 V 48.029385 H 241.42771 Z"/></clipPath><clipPath id="clipEmfPath8-0" clipPathUnits="userSpaceOnUse"><path id="path1636" d="M 171.30481,74.125351 H 249.5927 V 90.135146 H 171.30481 Z"/></clipPath><clipPath id="clipEmfPath9-6" clipPathUnits="userSpaceOnUse"><path id="path1639" d="m 173.38608,197.88107 h 79.08839 v 16.00979 h -79.08839 z"/></clipPath><clipPath id="clipEmfPath1-0" clipPathUnits="userSpaceOnUse"><path id="path2762" d="M 4.3206582,-1.9202925 H 640.41756 V 407.74212 H 4.3206582 Z"/></clipPath><clipPath id="clipEmfPath2-4" clipPathUnits="userSpaceOnUse"><path id="path2765" d="M 87.053262,77.13175 H 385.01865 v 33.76514 H 87.053262 Z"/></clipPath><clipPath id="clipEmfPath3-1" clipPathUnits="userSpaceOnUse"><path id="path2768" d="M 165.46521,192.66935 H 288.04388 V 226.4345 H 165.46521 Z"/></clipPath><clipPath id="clipEmfPath4-84" clipPathUnits="userSpaceOnUse"><path id="path2771" d="M 82.572579,209.63194 H 389.49934 v 33.60511 H 82.572579 Z"/></clipPath><clipPath id="clipEmfPath5-8" clipPathUnits="userSpaceOnUse"><path id="path2774" d="M 87.853384,226.59452 H 388.37917 v 33.60512 H 87.853384 Z"/></clipPath><clipPath id="clipEmfPath6-0" clipPathUnits="userSpaceOnUse"><path id="path2777" d="M 96.014627,291.40439 H 372.69678 v 33.76515 H 96.014627 Z"/></clipPath><clipPath id="clipEmfPath7-5" clipPathUnits="userSpaceOnUse"><path id="path2780" d="m 117.29787,341.17197 h 228.67484 v 33.76515 H 117.29787 Z"/></clipPath><clipPath id="clipEmfPath8-04" clipPathUnits="userSpaceOnUse"><path id="path2783" d="M 16.322487,140.18136 H 213.47252 v 36.8056 H 16.322487 Z"/></clipPath><clipPath id="clipEmfPath9-2" clipPathUnits="userSpaceOnUse"><path id="path2786" d="m 202.75089,141.1415 h 16.32248 v 18.40281 h -16.32248 z"/></clipPath><clipPath id="clipEmfPath10-6" clipPathUnits="userSpaceOnUse"><path id="path2789" d="M 265.00037,140.18136 H 372.8568 v 35.36538 H 265.00037 Z"/></clipPath><clipPath id="clipEmfPath11-0" clipPathUnits="userSpaceOnUse"><path id="path2792" d="m 459.91006,194.58964 h 147.54248 v 35.20537 H 459.91006 Z"/></clipPath><clipPath id="clipEmfPath12-2" clipPathUnits="userSpaceOnUse"><path id="path2795" d="M 8.8013408,18.402804 H 17.92273 V 36.805607 H 8.8013408 Z"/></clipPath><clipPath id="clipEmfPath13-9" clipPathUnits="userSpaceOnUse"><path id="path2798" d="m 22.083364,18.402804 h 9.281414 v 18.402803 h -9.281414 z"/></clipPath><clipPath id="clipEmfPath14-5" clipPathUnits="userSpaceOnUse"><path id="path2801" d="m 35.525412,18.402804 h 9.12139 v 18.402803 h -9.12139 z"/></clipPath><clipPath id="clipEmfPath15-4" clipPathUnits="userSpaceOnUse"><path id="path2804" d="m 102.25558,18.402804 h 9.12139 v 18.402803 h -9.12139 z"/></clipPath><clipPath id="clipEmfPath16-9" clipPathUnits="userSpaceOnUse"><path id="path2807" d="m 48.807435,18.402804 h 9.12139 v 18.402803 h -9.12139 z"/></clipPath><clipPath id="clipEmfPath17-3" clipPathUnits="userSpaceOnUse"><path id="path2810" d="m 62.089459,18.402804 h 9.281414 v 18.402803 h -9.281414 z"/></clipPath><clipPath id="clipEmfPath18-5" clipPathUnits="userSpaceOnUse"><path id="path2813" d="m 75.531507,18.402804 h 9.121389 v 18.402803 h -9.121389 z"/></clipPath><clipPath id="clipEmfPath19-8" clipPathUnits="userSpaceOnUse"><path id="path2816" d="m 128.81962,18.402804 h 9.28142 v 18.402803 h -9.28142 z"/></clipPath><clipPath id="clipEmfPath20-2" clipPathUnits="userSpaceOnUse"><path id="path2819" d="m 115.5376,18.402804 h 9.12139 v 18.402803 h -9.12139 z"/></clipPath><clipPath id="clipEmfPath21-7" clipPathUnits="userSpaceOnUse"><path id="path2822" d="m 88.81353,18.402804 h 9.281414 V 36.805607 H 88.81353 Z"/></clipPath><clipPath id="clipEmfPath22-5" clipPathUnits="userSpaceOnUse"><path id="path2825" d="m 142.26167,18.402804 h 9.28142 v 18.402803 h -9.28142 z"/></clipPath><clipPath id="clipEmfPath23" clipPathUnits="userSpaceOnUse"><path id="path2828" d="m 155.5437,18.402804 h 9.28141 v 18.402803 h -9.28141 z"/></clipPath><clipPath id="clipEmfPath24" clipPathUnits="userSpaceOnUse"><path id="path2831" d="m 168.98574,18.402804 h 9.12139 v 18.402803 h -9.12139 z"/></clipPath><clipPath id="clipEmfPath25" clipPathUnits="userSpaceOnUse"><path id="path2834" d="m 235.71591,18.402804 h 9.12139 v 18.402803 h -9.12139 z"/></clipPath><clipPath id="clipEmfPath26" clipPathUnits="userSpaceOnUse"><path id="path2837" d="m 182.26777,18.402804 h 9.28141 v 18.402803 h -9.28141 z"/></clipPath><clipPath id="clipEmfPath27" clipPathUnits="userSpaceOnUse"><path id="path2840" d="m 195.54979,18.402804 h 9.28141 v 18.402803 h -9.28141 z"/></clipPath><clipPath id="clipEmfPath28" clipPathUnits="userSpaceOnUse"><path id="path2843" d="m 208.99184,18.402804 h 9.12139 v 18.402803 h -9.12139 z"/></clipPath><clipPath id="clipEmfPath29" clipPathUnits="userSpaceOnUse"><path id="path2846" d="m 262.43998,18.402804 h 9.12139 v 18.402803 h -9.12139 z"/></clipPath><clipPath id="clipEmfPath30" clipPathUnits="userSpaceOnUse"><path id="path2849" d="m 248.99793,18.402804 h 9.28142 v 18.402803 h -9.28142 z"/></clipPath><clipPath id="clipEmfPath31" clipPathUnits="userSpaceOnUse"><path id="path2852" d="m 222.43389,18.402804 h 9.12139 v 18.402803 h -9.12139 z"/></clipPath><clipPath id="clipEmfPath32" clipPathUnits="userSpaceOnUse"><path id="path2855" d="m 275.722,18.402804 h 9.12139 V 36.805607 H 275.722 Z"/></clipPath><clipPath id="clipEmfPath33" clipPathUnits="userSpaceOnUse"><path id="path2858" d="m 289.16405,18.402804 h 9.12139 v 18.402803 h -9.12139 z"/></clipPath><clipPath id="clipEmfPath34" clipPathUnits="userSpaceOnUse"><path id="path2861" d="m 302.44607,18.402804 h 9.12139 v 18.402803 h -9.12139 z"/></clipPath><clipPath id="clipEmfPath35" clipPathUnits="userSpaceOnUse"><path id="path2864" d="m 369.17624,18.402804 h 9.12139 v 18.402803 h -9.12139 z"/></clipPath><clipPath id="clipEmfPath36" clipPathUnits="userSpaceOnUse"><path id="path2867" d="m 315.7281,18.402804 h 9.28141 v 18.402803 h -9.28141 z"/></clipPath><clipPath id="clipEmfPath37" clipPathUnits="userSpaceOnUse"><path id="path2870" d="m 329.17015,18.402804 h 9.12139 v 18.402803 h -9.12139 z"/></clipPath><clipPath id="clipEmfPath38" clipPathUnits="userSpaceOnUse"><path id="path2873" d="m 342.45217,18.402804 h 9.12139 v 18.402803 h -9.12139 z"/></clipPath><clipPath id="clipEmfPath39" clipPathUnits="userSpaceOnUse"><path id="path2876" d="m 395.90031,18.402804 h 9.12139 v 18.402803 h -9.12139 z"/></clipPath><clipPath id="clipEmfPath40" clipPathUnits="userSpaceOnUse"><path id="path2879" d="m 382.45826,18.402804 h 9.28142 v 18.402803 h -9.28142 z"/></clipPath><clipPath id="clipEmfPath41" clipPathUnits="userSpaceOnUse"><path id="path2882" d="m 355.89422,18.402804 h 9.12139 v 18.402803 h -9.12139 z"/></clipPath><clipPath id="clipEmfPath42" clipPathUnits="userSpaceOnUse"><path id="path2885" d="m 409.18234,18.402804 h 9.12138 v 18.402803 h -9.12138 z"/></clipPath><clipPath id="clipEmfPath43" clipPathUnits="userSpaceOnUse"><path id="path2888" d="m 421.66424,18.402804 h 9.12139 v 18.402803 h -9.12139 z"/></clipPath><clipPath id="clipEmfPath44" clipPathUnits="userSpaceOnUse"><path id="path2891" d="M 8.8013408,-0.32004876 H 17.92273 V 18.082755 H 8.8013408 Z"/></clipPath><clipPath id="clipEmfPath45" clipPathUnits="userSpaceOnUse"><path id="path2894" d="m 142.26167,-0.32004876 h 9.28142 V 18.082755 h -9.28142 z"/></clipPath><clipPath id="clipEmfPath46" clipPathUnits="userSpaceOnUse"><path id="path2897" d="m 275.722,-0.32004876 h 9.12139 V 18.082755 H 275.722 Z"/></clipPath><clipPath id="clipEmfPath47" clipPathUnits="userSpaceOnUse"><path id="path2900" d="m 409.18234,-0.32004876 h 9.12138 V 18.082755 h -9.12138 z"/></clipPath><clipPath id="clipEmfPath1-4" clipPathUnits="userSpaceOnUse"><path id="path3762" d="M -17.770872,-3.8423508 H 558.58175 V 345.97167 H -17.770872 Z"/></clipPath><clipPath id="clipEmfPath2-0" clipPathUnits="userSpaceOnUse"><path id="path3765" d="m 0,220.77507 h 32.339786 v 27.69695 H 0 Z"/></clipPath><clipPath id="clipEmfPath3-4" clipPathUnits="userSpaceOnUse"><path id="path3768" d="M 0,64.679572 H 76.366722 V 92.216419 H 0 Z"/></clipPath><clipPath id="clipEmfPath4-86" clipPathUnits="userSpaceOnUse"><path id="path3771" d="M 134.80247,27.857043 H 394.80155 V 41.625467 H 134.80247 Z"/></clipPath><clipPath id="clipEmfPath5-27" clipPathUnits="userSpaceOnUse"><path id="path3774" d="m 236.62477,119.43307 h 40.34468 v 27.53685 h -40.34468 z"/></clipPath><clipPath id="clipEmfPath6-8" clipPathUnits="userSpaceOnUse"><path id="path3777" d="M 215.01155,169.70383 H 320.0358 v 27.53684 H 215.01155 Z"/></clipPath><clipPath id="clipEmfPath7-7" clipPathUnits="userSpaceOnUse"><path id="path3780" d="m 236.62477,281.2921 h 70.283 v 27.53685 h -70.283 z"/></clipPath><clipPath id="clipEmfPath8-6" clipPathUnits="userSpaceOnUse"><path id="path3783" d="m 220.45488,145.84923 h 75.56623 v 27.53685 h -75.56623 z"/></clipPath><clipPath id="clipEmfPath9-0" clipPathUnits="userSpaceOnUse"><path id="path3786" d="M 215.01155,248.63212 H 320.0358 v 27.69694 H 215.01155 Z"/></clipPath><clipPath id="clipEmfPath10-34" clipPathUnits="userSpaceOnUse"><path id="path3789" d="M 215.01155,195.79979 H 320.0358 v 27.69695 H 215.01155 Z"/></clipPath><clipPath id="clipEmfPath11-8" clipPathUnits="userSpaceOnUse"><path id="path3792" d="m 424.41967,178.18902 h 101.5021 v 21.45312 h -101.5021 z"/></clipPath><clipPath id="clipEmfPath12-0" clipPathUnits="userSpaceOnUse"><path id="path3795" d="m 213.57067,64.679572 h 93.177 v 27.536847 h -93.177 z"/></clipPath><clipPath id="clipEmfPath13-5" clipPathUnits="userSpaceOnUse"><path id="path3798" d="M 90.135146,-0.3201959 H 138.64482 V 39.544194 H 90.135146 Z"/></clipPath><clipPath id="clipEmfPath14-6" clipPathUnits="userSpaceOnUse"><path id="path3801" d="m 377.03067,-0.3201959 h 37.78312 V 36.502333 h -37.78312 z"/></clipPath></defs><metadata id="metadata5"/><g id="layer1" transform="translate(428.12365,-83.011453)"><g id="g3821" clip-path="url(#clipEmfPath2-0)" transform="matrix(0.26458333,0,0,0.26458333,-428.23837,72.874515)"><text id="text3819" x="0" y="0" transform="translate(0,232.14203)" xml:space="preserve" style="font-style:normal;font-variant:normal;font-weight:700;font-size:12px;line-height:125%;font-family:Arial;text-align:start;letter-spacing:0;word-spacing:0;text-anchor:start;fill:#000;fill-opacity:1;stroke:none"><tspan id="tspan3817" x="0" y="0"><tspan id="tspan3813" dx="0" dy="0" style="font-style:normal;font-variant:normal;font-weight:700;font-size:12px;font-family:Arial;fill:#000">RTSP</tspan></tspan></text></g><path id="path3823" d="m -398.82517,90.119233 0.0159,67.214327" style="fill:none;stroke:#000;stroke-width:1.13046241px;stroke-linecap:butt;stroke-linejoin:round;stroke-miterlimit:4;stroke-dasharray:none;stroke-opacity:1"/><path id="path3825" d="m -322.04903,90.119233 0.0159,67.214327" style="fill:none;stroke:#000;stroke-width:1.12781501px;stroke-linecap:butt;stroke-linejoin:round;stroke-miterlimit:4;stroke-dasharray:none;stroke-opacity:1"/><g id="g3841" clip-path="url(#clipEmfPath3-4)" transform="matrix(0.26458333,0,0,0.26458333,-428.23837,81.095497)"><text id="text3839" x="0" y="0" transform="translate(0,76.046526)" xml:space="preserve" style="font-style:normal;font-variant:normal;font-weight:700;font-size:12px;line-height:125%;font-family:Arial;text-align:start;letter-spacing:0;word-spacing:0;text-anchor:start;fill:#000;fill-opacity:1;stroke:none"><tspan id="tspan3837" x="0" y="0"><tspan id="tspan3833" dx="0" dy="0" style="font-style:normal;font-variant:normal;font-weight:700;font-size:12px;font-family:Arial;fill:#000">Stream setup</tspan></tspan></text></g><path id="path3867" d="m -396.93488,101.02465 h 74.88585 v 0.76247 h -74.88585 z m 0.37064,1.50375 -2.26093,-1.13311 2.26093,-1.12781 z" style="fill:#000;fill-opacity:1;fill-rule:evenodd;stroke:none;stroke-width:.26458332"/><g id="g3881" clip-path="url(#clipEmfPath5-27)" transform="matrix(0.26458333,0,0,0.26458333,-428.23837,63.992075)"><text id="text3879" x="0" y="0" transform="translate(236.62477,130.31973)" xml:space="preserve" style="font-style:normal;font-variant:normal;font-weight:400;font-size:12px;line-height:125%;font-family:Arial;text-align:start;letter-spacing:0;word-spacing:0;text-anchor:start;fill:#000;fill-opacity:1;stroke:none"><tspan id="tspan3877" x="0" y="0"><tspan id="tspan3873" dx="0" dy="0" style="font-style:normal;font-variant:normal;font-weight:400;font-size:12px;font-family:Arial;fill:#000">SETUP</tspan></tspan></text></g><path id="path3883" d="m -397.57027,121.73061 h 75.52124 v 0.37064 h -75.52124 z m 0.24356,0.9372 -1.49846,-0.76247 1.49846,-0.74129 z" style="fill:#000;fill-opacity:1;fill-rule:evenodd;stroke:none;stroke-width:.26458332"/><g id="g3897" clip-path="url(#clipEmfPath6-8)" transform="matrix(0.26458333,0,0,0.26458333,-428.23837,71.370755)"><text id="text3895" x="0" y="0" transform="translate(215.01155,180.59049)" xml:space="preserve" style="font-style:normal;font-variant:normal;font-weight:400;font-size:12px;line-height:125%;font-family:Arial;text-align:start;letter-spacing:0;word-spacing:0;text-anchor:start;fill:#000;fill-opacity:1;stroke:none"><tspan id="tspan3893" x="0" y="0"><tspan id="tspan3889" dx="0" dy="0" style="font-style:normal;font-variant:normal;font-weight:400;font-size:12px;font-family:Arial;fill:#000">SET_PARAMETER</tspan></tspan></text></g><path id="path3899" d="m -396.93488,152.65816 h 74.88585 v 0.75717 h -74.88585 z m 0.37064,1.49846 -2.26093,-1.12782 2.26093,-1.13311 z" style="fill:#000;fill-opacity:1;fill-rule:evenodd;stroke:none;stroke-width:.26458332"/><g id="g3913" clip-path="url(#clipEmfPath7-7)" transform="matrix(0.26458333,0,0,0.26458333,-428.23837,72.874515)"><text id="text3911" x="0" y="0" transform="translate(236.62477,292.17876)" xml:space="preserve" style="font-style:normal;font-variant:normal;font-weight:400;font-size:12px;line-height:125%;font-family:Arial;text-align:start;letter-spacing:0;word-spacing:0;text-anchor:start;fill:#000;fill-opacity:1;stroke:none"><tspan id="tspan3909" x="0" y="0"><tspan id="tspan3905" dx="0" dy="0" style="font-style:normal;font-variant:normal;font-weight:400;font-size:12px;font-family:Arial;fill:#000">TEARDOWN</tspan></tspan></text></g><g id="g3927" clip-path="url(#clipEmfPath8-6)" transform="matrix(0.26458333,0,0,0.26458333,-428.23837,65.832165)"><text id="text3925" x="0" y="0" transform="translate(220.45488,156.73589)" xml:space="preserve" style="font-style:normal;font-variant:normal;font-weight:400;font-size:12px;line-height:125%;font-family:Arial;text-align:start;letter-spacing:0;word-spacing:0;text-anchor:start;fill:#000;fill-opacity:1;stroke:none"><tspan id="tspan3923" x="0" y="0"><tspan id="tspan3919" dx="0" dy="0" style="font-style:normal;font-variant:normal;font-weight:400;font-size:12px;font-family:Arial;fill:#000">Timeout value</tspan></tspan></text></g><path id="path3929" d="m -397.57027,144.30809 h 75.52124 v 0.37065 h -75.52124 z m 0.24356,0.9372 -1.49846,-0.76247 1.49846,-0.74128 z" style="fill:#000;fill-opacity:1;fill-rule:evenodd;stroke:none;stroke-width:.26458332"/><g id="g3943" clip-path="url(#clipEmfPath9-0)" transform="matrix(0.26458333,0,0,0.26458333,-428.23837,72.874515)"><text id="text3941" x="0" y="0" transform="translate(215.01155,259.51878)" xml:space="preserve" style="font-style:normal;font-variant:normal;font-weight:400;font-size:12px;line-height:125%;font-family:Arial;text-align:start;letter-spacing:0;word-spacing:0;text-anchor:start;fill:#000;fill-opacity:1;stroke:none"><tspan id="tspan3939" x="0" y="0"><tspan id="tspan3935" dx="0" dy="0" style="font-style:normal;font-variant:normal;font-weight:400;font-size:12px;font-family:Arial;fill:#000">SET_PARAMETER</tspan></tspan></text></g><path id="path3945" d="m -397.57027,130.04891 h 75.52124 v 0.37065 h -75.52124 z m 0.24356,0.9319 -1.49846,-0.75717 1.49846,-0.74128 z" style="fill:#000;fill-opacity:1;fill-rule:evenodd;stroke:none;stroke-width:.26458332"/><g id="g3959" clip-path="url(#clipEmfPath10-34)" transform="matrix(0.26458333,0,0,0.26458333,-428.23837,72.874515)"><text id="text3957" x="0" y="0" transform="translate(215.01155,206.68645)" xml:space="preserve" style="font-style:normal;font-variant:normal;font-weight:400;font-size:12px;line-height:125%;font-family:Arial;text-align:start;letter-spacing:0;word-spacing:0;text-anchor:start;fill:#000;fill-opacity:1;stroke:none"><tspan id="tspan3955" x="0" y="0"><tspan id="tspan3951" dx="0" dy="0" style="font-style:normal;font-variant:normal;font-weight:400;font-size:12px;font-family:Arial;fill:#000">SET_PARAMETER</tspan></tspan></text></g><path id="path3961" d="m -358.72684,133.08289 v 0.56391 h -0.56391 v -0.56391 z m 0,1.12782 v 0.56655 h -0.56391 v -0.56655 z m 0,1.13046 v 0.58244 h -0.56391 v -0.58244 z m 0,1.14635 v 0.56655 h -0.56391 v -0.56655 z m 0,1.13046 v 0.56391 h -0.56391 v -0.56391 z m 0,1.13046 v 0.053 h -0.56391 v -0.053 z" style="fill:#000;fill-opacity:1;fill-rule:evenodd;stroke:none;stroke-width:.26458332"/><path id="path3963" d="m -358.72684,133.08289 v 0.56391 h -0.56391 v -0.56391 z" style="fill:none;stroke:#000;stroke-width:.07148124px;stroke-linecap:round;stroke-linejoin:round;stroke-miterlimit:4;stroke-dasharray:none;stroke-opacity:1"/><path id="path3965" d="m -358.72684,134.21071 v 0.56655 h -0.56391 v -0.56655 z" style="fill:none;stroke:#000;stroke-width:.07148124px;stroke-linecap:round;stroke-linejoin:round;stroke-miterlimit:4;stroke-dasharray:none;stroke-opacity:1"/><path id="path3967" d="m -358.72684,135.34117 v 0.58244 h -0.56391 v -0.58244 z" style="fill:none;stroke:#000;stroke-width:.07148124px;stroke-linecap:round;stroke-linejoin:round;stroke-miterlimit:4;stroke-dasharray:none;stroke-opacity:1"/><path id="path3969" d="m -358.72684,136.48752 v 0.56655 h -0.56391 v -0.56655 z" style="fill:none;stroke:#000;stroke-width:.07148124px;stroke-linecap:round;stroke-linejoin:round;stroke-miterlimit:4;stroke-dasharray:none;stroke-opacity:1"/><g style="stroke-width:.83265638" id="g1250" transform="matrix(1,0,0,1.4423423,0,-57.619824)"><path style="fill:none;stroke:#000;stroke-width:.16312699px;stroke-linecap:round;stroke-linejoin:round;stroke-miterlimit:4;stroke-dasharray:none;stroke-opacity:1" id="path3975" d="m -320.60352,110.27773 c 0.78365,0 1.41374,0.37065 1.41374,0.8313 v 8.32359 c 0,0.46066 -0.63009,0.8366 -1.41374,0.8366"/><path style="fill:none;stroke:#000;stroke-width:.16312699px;stroke-linecap:round;stroke-linejoin:round;stroke-miterlimit:4;stroke-dasharray:none;stroke-opacity:1" id="path3977" d="m -320.60352,120.26922 c 0.78365,0 1.41374,0.37064 1.41374,0.8313 v 8.32359 c 0,0.46066 -0.63009,0.8366 -1.41374,0.8366"/></g><g id="g4013" clip-path="url(#clipEmfPath13-5)" transform="matrix(0.26458333,0,0,0.26458333,-428.23837,82.229426)"><text id="text4011" x="0" y="0" transform="translate(90.135146,15.689599)" xml:space="preserve" style="font-style:normal;font-variant:normal;font-weight:400;font-size:17.3125px;line-height:125%;font-family:Arial;text-align:start;letter-spacing:0;word-spacing:0;text-anchor:start;fill:#000;fill-opacity:1;stroke:none"><tspan id="tspan4009" x="0" y="0"><tspan id="tspan4005" dx="0" dy="0" style="font-style:normal;font-variant:normal;font-weight:400;font-size:17.3125px;font-family:Arial;fill:#000">server</tspan></tspan></text></g><g id="g4023" clip-path="url(#clipEmfPath14-6)" transform="matrix(0.26458333,0,0,0.26458333,-428.23837,82.229426)"><text id="text4021" x="0" y="0" transform="translate(377.03067,14.408816)" xml:space="preserve" style="font-style:normal;font-variant:normal;font-weight:400;font-size:16px;line-height:125%;font-family:Arial;text-align:start;letter-spacing:0;word-spacing:0;text-anchor:start;fill:#000;fill-opacity:1;stroke:none"><tspan id="tspan4019" x="0" y="0"><tspan id="tspan4015" dx="0" dy="0" style="font-style:normal;font-variant:normal;font-weight:400;font-size:16px;font-family:Arial;fill:#000">client</tspan></tspan></text></g><path id="path1398" d="m -398.82517,108.67909 76.77614,0.12178" style="fill:none;stroke:#000;stroke-width:.26458332px;stroke-linecap:butt;stroke-linejoin:miter;stroke-opacity:1;marker-end:url(#Arrow2Mend)"/><text id="text1172" x="-316.543" y="115" xml:space="preserve" style="font-style:normal;font-variant:normal;font-weight:400;font-stretch:normal;font-size:3.17499995px;line-height:1.25;font-family:sans-serif;-inkscape-font-specification:'sans-serif, Normal';font-variant-ligatures:normal;font-variant-caps:normal;font-variant-numeric:normal;font-feature-settings:normal;text-align:start;letter-spacing:0;word-spacing:0;writing-mode:lr-tb;text-anchor:start;fill:#000;fill-opacity:1;stroke:none;stroke-width:.26458332"><tspan style="text-align:start;text-anchor:start;stroke-width:.26458332" id="tspan1170" x="-316.543" y="115">within the</tspan><tspan id="tspan1174" x="-316.543" y="118.969" style="text-align:start;text-anchor:start;stroke-width:.26458332">timeout period</tspan></text></g></svg>