<svg xmlns="http://www.w3.org/2000/svg" xmlns:svg="http://www.w3.org/2000/svg" id="svg8" width="312.904" height="274.414" version="1.1" viewBox="0 0 82.789 72.605"><defs id="defs2"><clipPath id="clipEmfPath1" clipPathUnits="userSpaceOnUse"><path id="path815" d="m 122.72562,78.592368 h 97.78074 v 32.300422 h -97.78074 z"/></clipPath><clipPath id="clipEmfPath2" clipPathUnits="userSpaceOnUse"><path id="path818" d="m 122.72562,154.30648 h 97.78074 v 32.22047 h -97.78074 z"/></clipPath><clipPath id="clipEmfPath3" clipPathUnits="userSpaceOnUse"><path id="path821" d="m 122.72562,230.02059 h 97.78074 v 32.22048 h -97.78074 z"/></clipPath><clipPath id="clipEmfPath4" clipPathUnits="userSpaceOnUse"><path id="path824" d="m 122.72562,305.65475 h 97.78074 v 32.30043 h -97.78074 z"/></clipPath><clipPath id="clipEmfPath5" clipPathUnits="userSpaceOnUse"><path id="path827" d="m 311.89098,305.73471 h 97.86069 v 32.22047 h -97.86069 z"/></clipPath><clipPath id="clipEmfPath6" clipPathUnits="userSpaceOnUse"><path id="path830" d="M 296.94004,78.592368 H 442.21199 V 110.89279 H 296.94004 Z"/></clipPath><clipPath id="clipEmfPath7" clipPathUnits="userSpaceOnUse"><path id="path833" d="m 274.5536,199.23925 h 125.36403 v 25.66444 H 274.5536 Z"/></clipPath><clipPath id="clipEmfPath8" clipPathUnits="userSpaceOnUse"><path id="path836" d="m 104.33677,198.75954 h 66.59963 v 25.7444 h -66.59963 z"/></clipPath><clipPath id="clipEmfPath9" clipPathUnits="userSpaceOnUse"><path id="path839" d="m 100.65899,274.87341 h 70.27741 v 25.7444 h -70.27741 z"/></clipPath><clipPath id="clipEmfPath10" clipPathUnits="userSpaceOnUse"><path id="path842" d="m 15.670503,125.44397 h 62.202301 v 25.7444 H 15.670503 Z"/></clipPath><clipPath id="clipEmfPath11" clipPathUnits="userSpaceOnUse"><path id="path845" d="m 116.3295,37.417323 h 54.04724 V 63.081769 H 116.3295 Z"/></clipPath><clipPath id="clipEmfPath12" clipPathUnits="userSpaceOnUse"><path id="path848" d="m 100.65899,124.4046 h 69.55785 v 25.7444 h -69.55785 z"/></clipPath><clipPath id="clipEmfPath13" clipPathUnits="userSpaceOnUse"><path id="path851" d="m 245.05148,47.970927 h 59.96366 v 41.4149 h -59.96366 z"/></clipPath><clipPath id="clipEmfPath14" clipPathUnits="userSpaceOnUse"><path id="path854" d="m 263.20048,256.80436 h 86.58753 v 68.03877 h -86.58753 z"/></clipPath><clipPath id="clipEmfPath1-7" clipPathUnits="userSpaceOnUse"><path id="path938" d="M -5.7616648,-9.6027746 H 630.5822 V 472.13642 H -5.7616648 Z"/></clipPath><clipPath id="clipEmfPath2-8" clipPathUnits="userSpaceOnUse"><path id="path941" d="M 15.684532,32.649434 H 606.25517 v 45.13304 H 15.684532 Z"/></clipPath><clipPath id="clipEmfPath3-2" clipPathUnits="userSpaceOnUse"><path id="path944-9" d="M 15.684532,80.663307 H 299.28647 V 161.9668 H 15.684532 Z"/></clipPath><clipPath id="clipEmfPath4-8" clipPathUnits="userSpaceOnUse"><path id="path947" d="m 320.73267,217.3428 h 135.39912 v 33.28962 H 320.73267 Z"/></clipPath><clipPath id="clipEmfPath5-9" clipPathUnits="userSpaceOnUse"><path id="path950-3" d="M 15.684532,355.94284 H 606.89535 v 44.81295 H 15.684532 Z"/></clipPath><clipPath id="clipEmfPath6-6" clipPathUnits="userSpaceOnUse"><path id="path953" d="M 320.73267,80.663307 H 456.13179 V 209.98067 H 320.73267 Z"/></clipPath><clipPath id="clipEmfPath7-6" clipPathUnits="userSpaceOnUse"><path id="path956" d="M 471.49623,80.663307 H 606.89535 V 209.98067 H 471.49623 Z"/></clipPath><clipPath id="clipEmfPath8-9" clipPathUnits="userSpaceOnUse"><path id="path959" d="M 372.90775,3.2009249 H 546.71797 V 31.369064 H 372.90775 Z"/></clipPath><clipPath id="clipEmfPath9-9" clipPathUnits="userSpaceOnUse"><path id="path962" d="m 106.27071,183.0929 h 96.34783 v 22.08638 h -96.34783 z"/></clipPath><clipPath id="clipEmfPath10-3" clipPathUnits="userSpaceOnUse"><path id="path965" d="m 177.97142,219.26335 h 68.49979 v 22.08638 h -68.49979 z"/></clipPath><clipPath id="clipEmfPath11-6" clipPathUnits="userSpaceOnUse"><path id="path968-6" d="m 479.81864,217.98298 h 66.89933 v 33.92981 h -66.89933 z"/></clipPath><clipPath id="clipEmfPath12-3" clipPathUnits="userSpaceOnUse"><path id="path971" d="m 242.31001,282.64167 h 55.376 v 37.13072 h -55.376 z"/></clipPath><clipPath id="clipEmfPath13-3" clipPathUnits="userSpaceOnUse"><path id="path974" d="m 321.69295,283.60194 h 132.51829 v 37.13073 H 321.69295 Z"/></clipPath><clipPath id="clipEmfPath14-0" clipPathUnits="userSpaceOnUse"><path id="path977" d="m 222.46428,255.11371 h 69.46007 v 16.32472 h -69.46007 z"/></clipPath><clipPath id="clipEmfPath15" clipPathUnits="userSpaceOnUse"><path id="path980" d="M 66.259145,4.4812948 H 239.74927 V 52.175075 H 66.259145 Z"/></clipPath><clipPath id="clipEmfPath16" clipPathUnits="userSpaceOnUse"><path id="path983" d="m 328.41489,255.11371 h 69.46007 v 16.32472 h -69.46007 z"/></clipPath><clipPath id="clipEmfPath17" clipPathUnits="userSpaceOnUse"><path id="path986" d="m 474.37706,219.26335 h 69.46007 v 22.08638 h -69.46007 z"/></clipPath><clipPath id="clipEmfPath18" clipPathUnits="userSpaceOnUse"><path id="path989" d="m 321.37286,219.26335 h 69.46007 v 16.00463 h -69.46007 z"/></clipPath><clipPath id="clipEmfPath19" clipPathUnits="userSpaceOnUse"><path id="path992" d="m 321.37286,319.77239 h 285.52249 v 32.96953 H 321.37286 Z"/></clipPath><clipPath id="clipEmfPath20" clipPathUnits="userSpaceOnUse"><path id="path995" d="m 318.49202,255.11371 h 69.46007 v 16.32472 h -69.46007 z"/></clipPath><clipPath id="clipEmfPath21" clipPathUnits="userSpaceOnUse"><path id="path998" d="m 116.83376,319.77239 h 180.85225 v 32.96953 H 116.83376 Z"/></clipPath><clipPath id="clipEmfPath22" clipPathUnits="userSpaceOnUse"><path id="path1001" d="m 15.684532,319.77239 h 85.784788 v 32.96953 H 15.684532 Z"/></clipPath><clipPath id="clipEmfPath1-8" clipPathUnits="userSpaceOnUse"><path id="path1615" d="M 0,0 H 396.24243 V 337.80667 H 0 Z"/></clipPath><clipPath id="clipEmfPath2-5" clipPathUnits="userSpaceOnUse"><path id="path1618" d="M -7.2113248,-582.72437 H 107.36861 v 19.18435 H -7.2113248 Z"/></clipPath><clipPath id="clipEmfPath3-8" clipPathUnits="userSpaceOnUse"><path id="path1621" d="m 174.35381,-582.72437 h 106.24685 v 19.18435 H 174.35381 Z"/></clipPath><clipPath id="clipEmfPath4-7" clipPathUnits="userSpaceOnUse"><path id="path1624" d="m 104.16358,-537.48129 h 78.36306 v 15.98695 h -78.36306 z"/></clipPath><clipPath id="clipEmfPath5-2" clipPathUnits="userSpaceOnUse"><path id="path1627" d="m 106.24685,-413.90216 h 79.16432 v 15.98695 h -79.16432 z"/></clipPath><clipPath id="clipEmfPath6-1" clipPathUnits="userSpaceOnUse"><path id="path1630" d="M 60.036731,28.817631 H 174.50677 V 48.029385 H 60.036731 Z"/></clipPath><clipPath id="clipEmfPath7-8" clipPathUnits="userSpaceOnUse"><path id="path1633" d="M 241.42771,28.817631 H 347.57265 V 48.029385 H 241.42771 Z"/></clipPath><clipPath id="clipEmfPath8-0" clipPathUnits="userSpaceOnUse"><path id="path1636" d="M 171.30481,74.125351 H 249.5927 V 90.135146 H 171.30481 Z"/></clipPath><clipPath id="clipEmfPath9-6" clipPathUnits="userSpaceOnUse"><path id="path1639" d="m 173.38608,197.88107 h 79.08839 v 16.00979 h -79.08839 z"/></clipPath></defs><metadata id="metadata5"/><g id="layer1" transform="translate(458.93701,-94.928979)"><g id="g1760" transform="matrix(0.26458333,0,0,0.26458333,-458.93701,91.122086)"><path style="fill:#000;fill-opacity:1;fill-rule:nonzero;stroke:#000;stroke-width:.16009796px;stroke-linecap:butt;stroke-linejoin:bevel;stroke-miterlimit:4;stroke-dasharray:none;stroke-opacity:1" id="path1657" d="M 113.78962,54.153132 V 282.09259 h -2.00123 V 54.153132 Z m 3.00183,226.608638 -4.00244,8.0049 -4.00245,-8.0049 z"/><path style="fill:#000;fill-opacity:1;fill-rule:nonzero;stroke:#000;stroke-width:.16009796px;stroke-linecap:butt;stroke-linejoin:bevel;stroke-miterlimit:4;stroke-dasharray:none;stroke-opacity:1" id="path1659" d="M 302.90532,54.153132 V 274.4279 H 300.9041 V 54.153132 Z m 3.00184,218.933948 -4.00245,8.0049 -4.00245,-8.0049 z"/><g id="g1669" clip-path="url(#clipEmfPath6-1)"><text style="font-style:normal;font-variant:normal;font-weight:400;font-size:16px;line-height:125%;font-family:Arial;text-align:start;letter-spacing:0;word-spacing:0;text-anchor:start;fill:#000;fill-opacity:1;stroke:none" id="text1667" x="0" y="0" transform="translate(69.642608,43.546642)" xml:space="preserve"><tspan id="tspan1665" x="0" y="0"><tspan style="font-style:normal;font-variant:normal;font-weight:400;font-size:16px;font-family:Arial;fill:#000" id="tspan1661" dx="0" dy="0">server</tspan></tspan></text></g><g id="g1679" clip-path="url(#clipEmfPath7-8)"><text style="font-style:normal;font-variant:normal;font-weight:400;font-size:16px;line-height:125%;font-family:Arial;text-align:start;letter-spacing:0;word-spacing:0;text-anchor:start;fill:#000;fill-opacity:1;stroke:none" id="text1677" x="0" y="0" transform="translate(275.52857,43.546642)" xml:space="preserve"><tspan id="tspan1675" x="0" y="0"><tspan style="font-style:normal;font-variant:normal;font-weight:400;font-size:16px;font-family:Arial;fill:#000" id="tspan1671" dx="0" dy="0">client</tspan></tspan></text></g><path style="fill:#000;fill-opacity:1;fill-rule:nonzero;stroke:#000;stroke-width:.16009796px;stroke-linecap:butt;stroke-linejoin:bevel;stroke-miterlimit:4;stroke-dasharray:none;stroke-opacity:1" id="path1681" d="M 112.96912,71.323637 295.66089,122.4249 c 0.36022,0.10006 0.57035,0.47029 0.47029,0.83051 -0.10006,0.35021 -0.47029,0.56034 -0.83051,0.46028 L 112.6189,72.614427 c -0.36022,-0.100062 -0.57035,-0.470288 -0.47029,-0.820502 0.10007,-0.360221 0.47029,-0.570349 0.82051,-0.470288 z m 182.31154,47.529083 6.62405,6.01368 -8.78538,1.70104 z"/><path style="fill:#000;fill-opacity:1;fill-rule:nonzero;stroke:#000;stroke-width:.16009796px;stroke-linecap:butt;stroke-linejoin:bevel;stroke-miterlimit:4;stroke-dasharray:none;stroke-opacity:1" id="path1683" d="m 302.08482,201.22311 -182.69177,51.04123 c -0.35022,0.10006 -0.72044,-0.11007 -0.82051,-0.47029 -0.10006,-0.35021 0.11007,-0.72044 0.47029,-0.8205 l 182.69178,-51.03122 c 0.35021,-0.10006 0.72044,0.10006 0.8205,0.46028 0.10006,0.35021 -0.11007,0.72044 -0.47029,0.8205 z m -180.50043,53.89297 -8.79538,-1.70104 6.63405,-6.01368 z"/><g id="g1693" clip-path="url(#clipEmfPath8-0)"><text style="font-style:normal;font-variant:normal;font-weight:400;font-size:12px;line-height:125%;font-family:Arial;text-align:start;letter-spacing:0;word-spacing:0;text-anchor:start;fill:#000;fill-opacity:1;stroke:none" id="text1691" x="0" y="0" transform="translate(180.91068,85.17211)" xml:space="preserve"><tspan id="tspan1689" x="0" y="0"><tspan style="font-style:normal;font-variant:normal;font-weight:400;font-size:12px;font-family:Arial;fill:#000" id="tspan1685" dx="0" dy="0">RTCP SR</tspan></tspan></text></g><g id="g1703" clip-path="url(#clipEmfPath9-6)"><text style="font-style:normal;font-variant:normal;font-weight:400;font-size:12px;line-height:125%;font-family:Arial;text-align:start;letter-spacing:0;word-spacing:0;text-anchor:start;fill:#000;fill-opacity:1;stroke:none" id="text1701" x="0" y="0" transform="translate(182.99196,208.92783)" xml:space="preserve"><tspan id="tspan1699" x="0" y="0"><tspan style="font-style:normal;font-variant:normal;font-weight:400;font-size:12px;font-family:Arial;fill:#000" id="tspan1695" dx="0" dy="0">RTCP RR</tspan></tspan></text></g></g></g></svg>