<svg xmlns="http://www.w3.org/2000/svg" xmlns:xlink="http://www.w3.org/1999/xlink" width="1133" height="1441" contentScriptType="application/ecmascript" contentStyleType="text/css" style="width:1133px;height:1441px" preserveAspectRatio="none" version="1.1" viewBox="0 0 1133 1441" zoomAndPan="magnify"><defs><filter id="f9fexamtoy2mv" width="300%" height="300%" x="-1" y="-1"><feGaussianBlur result="blurOut" stdDeviation="2"/><feColorMatrix in="blurOut" result="blurOut2" type="matrix" values="0 0 0 0 0 0 0 0 0 0 0 0 0 0 0 0 0 0 .4 0"/><feOffset dx="4" dy="4" in="blurOut2" result="blurOut3"/><feBlend in="SourceGraphic" in2="blurOut3" mode="normal"/></filter></defs><g><rect style="stroke:#a80036;stroke-width:1" width="10" height="560.391" x="101.5" y="588.422" fill="#FFF" filter="url(#f9fexamtoy2mv)"/><rect style="stroke:#a80036;stroke-width:1" width="10" height="180.797" x="375" y="310.227" fill="#FFF" filter="url(#f9fexamtoy2mv)"/><rect style="stroke:#a80036;stroke-width:1" width="10" height="340.461" x="375" y="964.016" fill="#FFF" filter="url(#f9fexamtoy2mv)"/><rect style="stroke:#a80036;stroke-width:1" width="10" height="375.594" x="645" y="212.828" fill="#FFF" filter="url(#f9fexamtoy2mv)"/><rect style="stroke:#a80036;stroke-width:1" width="10" height="632.656" x="645" y="700.953" fill="#FFF" filter="url(#f9fexamtoy2mv)"/><rect style="stroke:#a80036;stroke-width:1" width="10" height="270.195" x="1035" y="98.297" fill="#FFF" filter="url(#f9fexamtoy2mv)"/><line style="stroke:#a80036;stroke-width:1;stroke-dasharray:5,5" x1="106" x2="106" y1="88.297" y2="1351.609"/><line style="stroke:#a80036;stroke-width:1;stroke-dasharray:5,5" x1="234" x2="234" y1="88.297" y2="1351.609"/><line style="stroke:#a80036;stroke-width:1;stroke-dasharray:5,5" x1="380" x2="380" y1="88.297" y2="1351.609"/><line style="stroke:#a80036;stroke-width:1;stroke-dasharray:5,5" x1="649.5" x2="649.5" y1="88.297" y2="1351.609"/><line style="stroke:#a80036;stroke-width:1;stroke-dasharray:5,5" x1="961" x2="961" y1="88.297" y2="1351.609"/><line style="stroke:#a80036;stroke-width:1;stroke-dasharray:5,5" x1="1040" x2="1040" y1="88.297" y2="1351.609"/><text x="59" y="84.995" fill="#000" font-family="sans-serif" font-size="14" lengthAdjust="spacing" textLength="89">Outside user</text><ellipse cx="106.5" cy="15" fill="#FEFECE" filter="url(#f9fexamtoy2mv)" rx="8" ry="8" style="stroke:#a80036;stroke-width:2"/><path fill="none" d="M106.5,23 L106.5,50 M93.5,31 L119.5,31 M106.5,50 L93.5,65 M106.5,50 L119.5,65" filter="url(#f9fexamtoy2mv)" style="stroke:#a80036;stroke-width:2"/><text x="59" y="1363.604" fill="#000" font-family="sans-serif" font-size="14" lengthAdjust="spacing" textLength="89">Outside user</text><ellipse cx="106.5" cy="1376.906" fill="#FEFECE" filter="url(#f9fexamtoy2mv)" rx="8" ry="8" style="stroke:#a80036;stroke-width:2"/><path fill="none" d="M106.5,1384.9063 L106.5,1411.9063 M93.5,1392.9063 L119.5,1392.9063 M106.5,1411.9063 L93.5,1426.9063 M106.5,1411.9063 L119.5,1426.9063" filter="url(#f9fexamtoy2mv)" style="stroke:#a80036;stroke-width:2"/><text x="188" y="68.698" fill="#000" font-family="sans-serif" font-size="14" lengthAdjust="spacing" textLength="87">AccessPoint</text><text x="175" y="84.995" fill="#000" font-family="sans-serif" font-size="14" lengthAdjust="spacing" textLength="113">Profile D device</text><ellipse cx="234.5" cy="39.703" fill="#FEFECE" filter="url(#f9fexamtoy2mv)" rx="12" ry="12" style="stroke:#a80036;stroke-width:2"/><line style="stroke:#a80036;stroke-width:2" x1="222.5" x2="246.5" y1="53.703" y2="53.703"/><text x="188" y="1363.604" fill="#000" font-family="sans-serif" font-size="14" lengthAdjust="spacing" textLength="87">AccessPoint</text><text x="175" y="1379.901" fill="#000" font-family="sans-serif" font-size="14" lengthAdjust="spacing" textLength="113">Profile D device</text><ellipse cx="234.5" cy="1399.203" fill="#FEFECE" filter="url(#f9fexamtoy2mv)" rx="12" ry="12" style="stroke:#a80036;stroke-width:2"/><line style="stroke:#a80036;stroke-width:2" x1="222.5" x2="246.5" y1="1413.203" y2="1413.203"/><text x="359.5" y="68.698" fill="#000" font-family="sans-serif" font-size="14" lengthAdjust="spacing" textLength="35">Door</text><text x="304" y="84.995" fill="#000" font-family="sans-serif" font-size="14" lengthAdjust="spacing" textLength="146">Profile C or D device</text><ellipse cx="380" cy="39.703" fill="#FEFECE" filter="url(#f9fexamtoy2mv)" rx="12" ry="12" style="stroke:#a80036;stroke-width:2"/><line style="stroke:#a80036;stroke-width:2" x1="368" x2="392" y1="53.703" y2="53.703"/><text x="359.5" y="1363.604" fill="#000" font-family="sans-serif" font-size="14" lengthAdjust="spacing" textLength="35">Door</text><text x="304" y="1379.901" fill="#000" font-family="sans-serif" font-size="14" lengthAdjust="spacing" textLength="146">Profile C or D device</text><ellipse cx="380" cy="1399.203" fill="#FEFECE" filter="url(#f9fexamtoy2mv)" rx="12" ry="12" style="stroke:#a80036;stroke-width:2"/><line style="stroke:#a80036;stroke-width:2" x1="368" x2="392" y1="1413.203" y2="1413.203"/><text x="610.5" y="52.401" fill="#000" font-family="sans-serif" font-size="14" lengthAdjust="spacing" textLength="73">Controller</text><text x="591.5" y="68.698" fill="#000" font-family="sans-serif" font-size="14" lengthAdjust="spacing" textLength="111">Profile D client,</text><text x="574.5" y="84.995" fill="#000" font-family="sans-serif" font-size="14" lengthAdjust="spacing" textLength="145">Profile A or C device</text><ellipse cx="650" cy="23.406" fill="#FEFECE" filter="url(#f9fexamtoy2mv)" rx="12" ry="12" style="stroke:#a80036;stroke-width:2"/><line style="stroke:#a80036;stroke-width:2" x1="638" x2="662" y1="37.406" y2="37.406"/><text x="610.5" y="1363.604" fill="#000" font-family="sans-serif" font-size="14" lengthAdjust="spacing" textLength="73">Controller</text><text x="591.5" y="1379.901" fill="#000" font-family="sans-serif" font-size="14" lengthAdjust="spacing" textLength="111">Profile D client,</text><text x="574.5" y="1396.198" fill="#000" font-family="sans-serif" font-size="14" lengthAdjust="spacing" textLength="145">Profile A or C device</text><ellipse cx="650" cy="1415.5" fill="#FEFECE" filter="url(#f9fexamtoy2mv)" rx="12" ry="12" style="stroke:#a80036;stroke-width:2"/><line style="stroke:#a80036;stroke-width:2" x1="638" x2="662" y1="1429.5" y2="1429.5"/><text x="937" y="68.698" fill="#000" font-family="sans-serif" font-size="14" lengthAdjust="spacing" textLength="42">Event</text><text x="933" y="84.995" fill="#000" font-family="sans-serif" font-size="14" lengthAdjust="spacing" textLength="50">Logger</text><path fill="#FEFECE" d="M943,19.7031 C943,9.7031 961,9.7031 961,9.7031 C961,9.7031 979,9.7031 979,19.7031 L979,45.7031 C979,55.7031 961,55.7031 961,55.7031 C961,55.7031 943,55.7031 943,45.7031 L943,19.7031" filter="url(#f9fexamtoy2mv)" style="stroke:#000;stroke-width:1.5"/><path fill="none" d="M943,19.7031 C943,29.7031 961,29.7031 961,29.7031 C961,29.7031 979,29.7031 979,19.7031" style="stroke:#000;stroke-width:1.5"/><text x="937" y="1363.604" fill="#000" font-family="sans-serif" font-size="14" lengthAdjust="spacing" textLength="42">Event</text><text x="933" y="1379.901" fill="#000" font-family="sans-serif" font-size="14" lengthAdjust="spacing" textLength="50">Logger</text><path fill="#FEFECE" d="M943,1393.2031 C943,1383.2031 961,1383.2031 961,1383.2031 C961,1383.2031 979,1383.2031 979,1393.2031 L979,1419.2031 C979,1429.2031 961,1429.2031 961,1429.2031 C961,1429.2031 943,1429.2031 943,1419.2031 L943,1393.2031" filter="url(#f9fexamtoy2mv)" style="stroke:#000;stroke-width:1.5"/><path fill="none" d="M943,1393.2031 C943,1403.2031 961,1403.2031 961,1403.2031 C961,1403.2031 979,1403.2031 979,1393.2031" style="stroke:#000;stroke-width:1.5"/><text x="999" y="84.995" fill="#000" font-family="sans-serif" font-size="14" lengthAdjust="spacing" textLength="76">Inside user</text><ellipse cx="1040" cy="15" fill="#FEFECE" filter="url(#f9fexamtoy2mv)" rx="8" ry="8" style="stroke:#a80036;stroke-width:2"/><path fill="none" d="M1040,23 L1040,50 M1027,31 L1053,31 M1040,50 L1027,65 M1040,50 L1053,65" filter="url(#f9fexamtoy2mv)" style="stroke:#a80036;stroke-width:2"/><text x="999" y="1363.604" fill="#000" font-family="sans-serif" font-size="14" lengthAdjust="spacing" textLength="76">Inside user</text><ellipse cx="1040" cy="1376.906" fill="#FEFECE" filter="url(#f9fexamtoy2mv)" rx="8" ry="8" style="stroke:#a80036;stroke-width:2"/><path fill="none" d="M1040,1384.9063 L1040,1411.9063 M1027,1392.9063 L1053,1392.9063 M1040,1411.9063 L1027,1426.9063 M1040,1411.9063 L1053,1426.9063" filter="url(#f9fexamtoy2mv)" style="stroke:#a80036;stroke-width:2"/><rect style="stroke:#a80036;stroke-width:1" width="10" height="560.391" x="101.5" y="588.422" fill="#FFF" filter="url(#f9fexamtoy2mv)"/><rect style="stroke:#a80036;stroke-width:1" width="10" height="180.797" x="375" y="310.227" fill="#FFF" filter="url(#f9fexamtoy2mv)"/><rect style="stroke:#a80036;stroke-width:1" width="10" height="340.461" x="375" y="964.016" fill="#FFF" filter="url(#f9fexamtoy2mv)"/><rect style="stroke:#a80036;stroke-width:1" width="10" height="375.594" x="645" y="212.828" fill="#FFF" filter="url(#f9fexamtoy2mv)"/><rect style="stroke:#a80036;stroke-width:1" width="10" height="632.656" x="645" y="700.953" fill="#FFF" filter="url(#f9fexamtoy2mv)"/><rect style="stroke:#a80036;stroke-width:1" width="10" height="270.195" x="1035" y="98.297" fill="#FFF" filter="url(#f9fexamtoy2mv)"/><path fill="#FBFB77" d="M211,103.2969 L211,128.2969 L254,128.2969 L254,113.2969 L244,103.2969 L211,103.2969" filter="url(#f9fexamtoy2mv)" style="stroke:#a80036;stroke-width:1"/><path fill="#FBFB77" d="M244,103.2969 L244,113.2969 L254,113.2969 L244,103.2969" style="stroke:#a80036;stroke-width:1"/><text x="217" y="120.364" fill="#000" font-family="sans-serif" font-size="13" lengthAdjust="spacing" textLength="22">Idle</text><path fill="#FBFB77" d="M329,103.2969 L329,128.2969 L426,128.2969 L426,113.2969 L416,103.2969 L329,103.2969" filter="url(#f9fexamtoy2mv)" style="stroke:#a80036;stroke-width:1"/><path fill="#FBFB77" d="M416,103.2969 L416,113.2969 L426,113.2969 L416,103.2969" style="stroke:#a80036;stroke-width:1"/><text x="335" y="120.364" fill="#000" font-family="sans-serif" font-size="13" lengthAdjust="spacing" textLength="76">DoorLocked</text><path fill="#FBFB77" d="M626,103.2969 L626,128.2969 L669,128.2969 L669,113.2969 L659,103.2969 L626,103.2969" filter="url(#f9fexamtoy2mv)" style="stroke:#a80036;stroke-width:1"/><path fill="#FBFB77" d="M659,103.2969 L659,113.2969 L669,113.2969 L659,103.2969" style="stroke:#a80036;stroke-width:1"/><text x="632" y="120.364" fill="#000" font-family="sans-serif" font-size="13" lengthAdjust="spacing" textLength="22">Idle</text><path fill="#FBFB77" d="M952,142.4297 L952,182.4297 L1123,182.4297 L1123,152.4297 L1113,142.4297 L952,142.4297" filter="url(#f9fexamtoy2mv)" style="stroke:#a80036;stroke-width:1"/><path fill="#FBFB77" d="M1113,142.4297 L1113,152.4297 L1123,152.4297 L1113,142.4297" style="stroke:#a80036;stroke-width:1"/><text x="958" y="159.497" fill="#000" font-family="sans-serif" font-size="13" lengthAdjust="spacing" textLength="109">Approaches door</text><text x="958" y="174.629" fill="#000" font-family="sans-serif" font-size="13" lengthAdjust="spacing" textLength="150">and pushes REX button</text><polygon fill="#A80036" points="666 208.828 656 212.828 666 216.828 662 212.828" style="stroke:#a80036;stroke-width:1"/><line style="stroke:#a80036;stroke-width:1" x1="660" x2="1034" y1="212.828" y2="212.828"/><text x="672" y="207.762" fill="#000" font-family="sans-serif" font-size="13" lengthAdjust="spacing" textLength="78">Internal REX</text><path fill="#FBFB77" d="M595,225.8281 L595,250.8281 L700,250.8281 L700,235.8281 L690,225.8281 L595,225.8281" filter="url(#f9fexamtoy2mv)" style="stroke:#a80036;stroke-width:1"/><path fill="#FBFB77" d="M690,225.8281 L690,235.8281 L700,235.8281 L690,225.8281" style="stroke:#a80036;stroke-width:1"/><text x="601" y="242.895" fill="#000" font-family="sans-serif" font-size="13" lengthAdjust="spacing" textLength="84">Grant access</text><polygon fill="#A80036" points="949 277.094 959 281.094 949 285.094 953 281.094" style="stroke:#a80036;stroke-width:1"/><line style="stroke:#a80036;stroke-width:1" x1="655" x2="955" y1="281.094" y2="281.094"/><text x="662" y="276.028" fill="#000" font-family="sans-serif" font-size="13" lengthAdjust="spacing" textLength="273">AccessControl/AccessGranted/Anonymous</text><polygon fill="#A80036" points="396 306.227 386 310.227 396 314.227 392 310.227" style="stroke:#a80036;stroke-width:1"/><line style="stroke:#a80036;stroke-width:1" x1="390" x2="644" y1="310.227" y2="310.227"/><text x="402" y="305.161" fill="#000" font-family="sans-serif" font-size="13" lengthAdjust="spacing" textLength="86">AccessDoor()</text><polygon fill="#A80036" points="245.5 335.359 235.5 339.359 245.5 343.359 241.5 339.359" style="stroke:#a80036;stroke-width:1"/><line style="stroke:#a80036;stroke-width:1" x1="239.5" x2="644" y1="339.359" y2="339.359"/><text x="251.5" y="334.293" fill="#000" font-family="sans-serif" font-size="13" lengthAdjust="spacing" textLength="160">Feedback(DoorUnlocked)</text><polygon fill="#A80036" points="633 364.492 643 368.492 633 372.492 637 368.492" style="stroke:#a80036;stroke-width:1"/><line style="stroke:#a80036;stroke-width:1" x1="385" x2="639" y1="368.492" y2="368.492"/><text x="392" y="363.426" fill="#000" font-family="sans-serif" font-size="13" lengthAdjust="spacing" textLength="171">Door/DoorMode=Accessed</text><path fill="#FBFB77" d="M951,381.4922 L951,421.4922 L1124,421.4922 L1124,391.4922 L1114,381.4922 L951,381.4922" filter="url(#f9fexamtoy2mv)" style="stroke:#a80036;stroke-width:1"/><path fill="#FBFB77" d="M1114,381.4922 L1114,391.4922 L1124,391.4922 L1114,381.4922" style="stroke:#a80036;stroke-width:1"/><text x="957" y="398.559" fill="#000" font-family="sans-serif" font-size="13" lengthAdjust="spacing" textLength="152">Does not open the door</text><text x="957" y="413.692" fill="#000" font-family="sans-serif" font-size="13" lengthAdjust="spacing" textLength="98">and goes away</text><line style="stroke:#a80036;stroke-width:2" x1="1031" x2="1049" y1="359.492" y2="377.492"/><line style="stroke:#a80036;stroke-width:2" x1="1031" x2="1049" y1="377.492" y2="359.492"/><path fill="#FBFB77" d="M312,435.7578 L312,460.7578 L443,460.7578 L443,445.7578 L433,435.7578 L312,435.7578" filter="url(#f9fexamtoy2mv)" style="stroke:#a80036;stroke-width:1"/><path fill="#FBFB77" d="M433,435.7578 L433,445.7578 L443,445.7578 L433,435.7578" style="stroke:#a80036;stroke-width:1"/><text x="318" y="452.825" fill="#000" font-family="sans-serif" font-size="13" lengthAdjust="spacing" textLength="110">Access times out</text><polygon fill="#A80036" points="633 487.023 643 491.023 633 495.023 637 491.023" style="stroke:#a80036;stroke-width:1"/><line style="stroke:#a80036;stroke-width:1" x1="380" x2="639" y1="491.023" y2="491.023"/><text x="387" y="485.957" fill="#000" font-family="sans-serif" font-size="13" lengthAdjust="spacing" textLength="186">Door/DoorMode=DoorLocked</text><line style="stroke:#a80036;stroke-width:2" x1="371" x2="389" y1="482.023" y2="500.023"/><line style="stroke:#a80036;stroke-width:2" x1="371" x2="389" y1="500.023" y2="482.023"/><path fill="#FBFB77" d="M582,504.0234 L582,529.0234 L713,529.0234 L713,514.0234 L703,504.0234 L582,504.0234" filter="url(#f9fexamtoy2mv)" style="stroke:#a80036;stroke-width:1"/><path fill="#FBFB77" d="M703,504.0234 L703,514.0234 L713,514.0234 L703,504.0234" style="stroke:#a80036;stroke-width:1"/><text x="588" y="521.09" fill="#000" font-family="sans-serif" font-size="13" lengthAdjust="spacing" textLength="110">Access not taken</text><polygon fill="#A80036" points="949 555.289 959 559.289 949 563.289 953 559.289" style="stroke:#a80036;stroke-width:1"/><line style="stroke:#a80036;stroke-width:1" x1="655" x2="955" y1="559.289" y2="559.289"/><text x="662" y="554.223" fill="#000" font-family="sans-serif" font-size="13" lengthAdjust="spacing" textLength="282">AccessControl/AccessNotTaken/Anonymous</text><polygon fill="#A80036" points="245.5 584.422 235.5 588.422 245.5 592.422 241.5 588.422" style="stroke:#a80036;stroke-width:1"/><line style="stroke:#a80036;stroke-width:1" x1="239.5" x2="649" y1="588.422" y2="588.422"/><text x="251.5" y="583.356" fill="#000" font-family="sans-serif" font-size="13" lengthAdjust="spacing" textLength="147">Feedback(DoorLocked)</text><line style="stroke:#a80036;stroke-width:2" x1="641" x2="659" y1="579.422" y2="597.422"/><line style="stroke:#a80036;stroke-width:2" x1="641" x2="659" y1="597.422" y2="579.422"/><path fill="#FBFB77" d="M25,601.4219 L25,641.4219 L184,641.4219 L184,611.4219 L174,601.4219 L25,601.4219" filter="url(#f9fexamtoy2mv)" style="stroke:#a80036;stroke-width:1"/><path fill="#FBFB77" d="M174,601.4219 L174,611.4219 L184,611.4219 L174,601.4219" style="stroke:#a80036;stroke-width:1"/><text x="31" y="618.489" fill="#000" font-family="sans-serif" font-size="13" lengthAdjust="spacing" textLength="108">User approaches</text><text x="31" y="633.622" fill="#000" font-family="sans-serif" font-size="13" lengthAdjust="spacing" textLength="138">and presents his card</text><polygon fill="#A80036" points="222.5 667.82 232.5 671.82 222.5 675.82 226.5 671.82" style="stroke:#a80036;stroke-width:1"/><line style="stroke:#a80036;stroke-width:1" x1="111.5" x2="228.5" y1="671.82" y2="671.82"/><text x="118.5" y="666.754" fill="#000" font-family="sans-serif" font-size="13" lengthAdjust="spacing" textLength="99">Card presented</text><polygon fill="#A80036" points="633 696.953 643 700.953 633 704.953 637 700.953" style="stroke:#a80036;stroke-width:1"/><line style="stroke:#a80036;stroke-width:1" x1="234.5" x2="639" y1="700.953" y2="700.953"/><text x="241.5" y="695.887" fill="#000" font-family="sans-serif" font-size="13" lengthAdjust="spacing" textLength="270">AccessControl/Request/Identifier (pt:Card)</text><path fill="#FBFB77" d="M599,713.9531 L599,738.9531 L697,738.9531 L697,723.9531 L687,713.9531 L599,713.9531" filter="url(#f9fexamtoy2mv)" style="stroke:#a80036;stroke-width:1"/><path fill="#FBFB77" d="M687,713.9531 L687,723.9531 L697,723.9531 L687,713.9531" style="stroke:#a80036;stroke-width:1"/><text x="605" y="731.02" fill="#000" font-family="sans-serif" font-size="13" lengthAdjust="spacing" textLength="77">PIN required</text><polygon fill="#A80036" points="245.5 765.219 235.5 769.219 245.5 773.219 241.5 769.219" style="stroke:#a80036;stroke-width:1"/><line style="stroke:#a80036;stroke-width:1" x1="239.5" x2="644" y1="769.219" y2="769.219"/><text x="251.5" y="764.153" fill="#000" font-family="sans-serif" font-size="13" lengthAdjust="spacing" textLength="222">Feedback(RequireIdentifier, pt:PIN)</text><path fill="#FBFB77" d="M45,782.2188 L45,807.2188 L164,807.2188 L164,792.2188 L154,782.2188 L45,782.2188" filter="url(#f9fexamtoy2mv)" style="stroke:#a80036;stroke-width:1"/><path fill="#FBFB77" d="M154,782.2188 L154,792.2188 L164,792.2188 L154,782.2188" style="stroke:#a80036;stroke-width:1"/><text x="51" y="799.286" fill="#000" font-family="sans-serif" font-size="13" lengthAdjust="spacing" textLength="98">User enters PIN</text><polygon fill="#A80036" points="222.5 833.484 232.5 837.484 222.5 841.484 226.5 837.484" style="stroke:#a80036;stroke-width:1"/><line style="stroke:#a80036;stroke-width:1" x1="111.5" x2="228.5" y1="837.484" y2="837.484"/><text x="118.5" y="832.418" fill="#000" font-family="sans-serif" font-size="13" lengthAdjust="spacing" textLength="89">PIN presented</text><polygon fill="#A80036" points="633 862.617 643 866.617 633 870.617 637 866.617" style="stroke:#a80036;stroke-width:1"/><line style="stroke:#a80036;stroke-width:1" x1="234.5" x2="639" y1="866.617" y2="866.617"/><text x="241.5" y="861.551" fill="#000" font-family="sans-serif" font-size="13" lengthAdjust="spacing" textLength="260">AccessControl/Request/Identifier (pt:PIN)</text><path fill="#FBFB77" d="M595,879.6172 L595,904.6172 L700,904.6172 L700,889.6172 L690,879.6172 L595,879.6172" filter="url(#f9fexamtoy2mv)" style="stroke:#a80036;stroke-width:1"/><path fill="#FBFB77" d="M690,879.6172 L690,889.6172 L700,889.6172 L690,879.6172" style="stroke:#a80036;stroke-width:1"/><text x="601" y="896.684" fill="#000" font-family="sans-serif" font-size="13" lengthAdjust="spacing" textLength="84">Grant access</text><polygon fill="#A80036" points="949 930.883 959 934.883 949 938.883 953 934.883" style="stroke:#a80036;stroke-width:1"/><line style="stroke:#a80036;stroke-width:1" x1="655" x2="955" y1="934.883" y2="934.883"/><text x="662" y="929.817" fill="#000" font-family="sans-serif" font-size="13" lengthAdjust="spacing" textLength="261">AccessControl/AccessGranted/Credential</text><polygon fill="#A80036" points="396 960.016 386 964.016 396 968.016 392 964.016" style="stroke:#a80036;stroke-width:1"/><line style="stroke:#a80036;stroke-width:1" x1="390" x2="644" y1="964.016" y2="964.016"/><text x="402" y="958.95" fill="#000" font-family="sans-serif" font-size="13" lengthAdjust="spacing" textLength="86">AccessDoor()</text><polygon fill="#A80036" points="633 989.148 643 993.148 633 997.148 637 993.148" style="stroke:#a80036;stroke-width:1"/><line style="stroke:#a80036;stroke-width:1" x1="385" x2="639" y1="993.148" y2="993.148"/><text x="392" y="988.082" fill="#000" font-family="sans-serif" font-size="13" lengthAdjust="spacing" textLength="171">Door/DoorMode=Accessed</text><polygon fill="#A80036" points="245.5 1018.281 235.5 1022.281 245.5 1026.281 241.5 1022.281" style="stroke:#a80036;stroke-width:1"/><line style="stroke:#a80036;stroke-width:1" x1="239.5" x2="644" y1="1022.281" y2="1022.281"/><text x="251.5" y="1017.215" fill="#000" font-family="sans-serif" font-size="13" lengthAdjust="spacing" textLength="264">ExternalAuthorization(Decision=Granted)</text><polygon fill="#A80036" points="245.5 1047.414 235.5 1051.414 245.5 1055.414 241.5 1051.414" style="stroke:#a80036;stroke-width:1"/><line style="stroke:#a80036;stroke-width:1" x1="239.5" x2="644" y1="1051.414" y2="1051.414"/><text x="251.5" y="1046.348" fill="#000" font-family="sans-serif" font-size="13" lengthAdjust="spacing" textLength="168">Feedback(AccessGranted)</text><path fill="#FBFB77" d="M5,1064.4141 L5,1089.4141 L204,1089.4141 L204,1074.4141 L194,1064.4141 L5,1064.4141" filter="url(#f9fexamtoy2mv)" style="stroke:#a80036;stroke-width:1"/><path fill="#FBFB77" d="M194,1064.4141 L194,1074.4141 L204,1074.4141 L194,1064.4141" style="stroke:#a80036;stroke-width:1"/><text x="11" y="1081.481" fill="#000" font-family="sans-serif" font-size="13" lengthAdjust="spacing" textLength="178">User opens door and enters</text><polygon fill="#A80036" points="363 1115.68 373 1119.68 363 1123.68 367 1119.68" style="stroke:#a80036;stroke-width:1"/><line style="stroke:#a80036;stroke-width:1" x1="111.5" x2="369" y1="1119.68" y2="1119.68"/><text x="118.5" y="1114.614" fill="#000" font-family="sans-serif" font-size="13" lengthAdjust="spacing" textLength="67">Open door</text><polygon fill="#A80036" points="633 1144.813 643 1148.813 633 1152.813 637 1148.813" style="stroke:#a80036;stroke-width:1"/><line style="stroke:#a80036;stroke-width:1" x1="385" x2="639" y1="1148.813" y2="1148.813"/><text x="392" y="1143.747" fill="#000" font-family="sans-serif" font-size="13" lengthAdjust="spacing" textLength="227">Door/DoorPhysicalState=DoorOpen</text><path fill="#FBFB77" d="M595,1161.8125 L595,1186.8125 L701,1186.8125 L701,1171.8125 L691,1161.8125 L595,1161.8125" filter="url(#f9fexamtoy2mv)" style="stroke:#a80036;stroke-width:1"/><path fill="#FBFB77" d="M691,1161.8125 L691,1171.8125 L701,1171.8125 L691,1161.8125" style="stroke:#a80036;stroke-width:1"/><text x="601" y="1178.879" fill="#000" font-family="sans-serif" font-size="13" lengthAdjust="spacing" textLength="85">Access taken</text><line style="stroke:#a80036;stroke-width:2" x1="97.5" x2="115.5" y1="1139.813" y2="1157.813"/><line style="stroke:#a80036;stroke-width:2" x1="97.5" x2="115.5" y1="1157.813" y2="1139.813"/><polygon fill="#A80036" points="949 1213.078 959 1217.078 949 1221.078 953 1217.078" style="stroke:#a80036;stroke-width:1"/><line style="stroke:#a80036;stroke-width:1" x1="655" x2="955" y1="1217.078" y2="1217.078"/><text x="662" y="1212.012" fill="#000" font-family="sans-serif" font-size="13" lengthAdjust="spacing" textLength="270">AccessControl/AccessNotTaken/Credential</text><polygon fill="#A80036" points="245.5 1242.211 235.5 1246.211 245.5 1250.211 241.5 1246.211" style="stroke:#a80036;stroke-width:1"/><line style="stroke:#a80036;stroke-width:1" x1="239.5" x2="644" y1="1246.211" y2="1246.211"/><text x="251.5" y="1241.145" fill="#000" font-family="sans-serif" font-size="13" lengthAdjust="spacing" textLength="160">Feedback(DoorUnlocked)</text><polygon fill="#A80036" points="633 1271.344 643 1275.344 633 1279.344 637 1275.344" style="stroke:#a80036;stroke-width:1"/><line style="stroke:#a80036;stroke-width:1" x1="385" x2="639" y1="1275.344" y2="1275.344"/><text x="392" y="1270.278" fill="#000" font-family="sans-serif" font-size="13" lengthAdjust="spacing" textLength="236">Door/DoorPhysicalState=DoorClosed</text><polygon fill="#A80036" points="633 1300.477 643 1304.477 633 1308.477 637 1304.477" style="stroke:#a80036;stroke-width:1"/><line style="stroke:#a80036;stroke-width:1" x1="380" x2="639" y1="1304.477" y2="1304.477"/><text x="387" y="1299.411" fill="#000" font-family="sans-serif" font-size="13" lengthAdjust="spacing" textLength="186">Door/DoorMode=DoorLocked</text><line style="stroke:#a80036;stroke-width:2" x1="371" x2="389" y1="1295.477" y2="1313.477"/><line style="stroke:#a80036;stroke-width:2" x1="371" x2="389" y1="1313.477" y2="1295.477"/><polygon fill="#A80036" points="245.5 1329.609 235.5 1333.609 245.5 1337.609 241.5 1333.609" style="stroke:#a80036;stroke-width:1"/><line style="stroke:#a80036;stroke-width:1" x1="239.5" x2="649" y1="1333.609" y2="1333.609"/><text x="251.5" y="1328.543" fill="#000" font-family="sans-serif" font-size="13" lengthAdjust="spacing" textLength="147">Feedback(DoorLocked)</text><line style="stroke:#a80036;stroke-width:2" x1="641" x2="659" y1="1324.609" y2="1342.609"/><line style="stroke:#a80036;stroke-width:2" x1="641" x2="659" y1="1342.609" y2="1324.609"/></g></svg>